<?xml version="1.0" encoding="utf-8"?>
<!-- Generator: Adobe Illustrator 21.0.2, SVG Export Plug-In . SVG Version: 6.00 Build 0)  -->
<svg version="1.1" id="Layer_1" xmlns="http://www.w3.org/2000/svg" xmlns:xlink="http://www.w3.org/1999/xlink" x="0px" y="0px"
	 viewBox="0 0 77.5 93" style="enable-background:new 0 0 77.5 93;" xml:space="preserve">
<style type="text/css">
	.st0{fill:#FFFFFF;}
</style>
<title>Asset 2</title>
<g id="Layer_2">
	<g id="Layer_1-2">
		<path class="st0" d="M76.5,72.8c-5.9-4.4-9.3-11.3-9.3-18.6V38.8c0-12.7-8.4-23.9-20.7-27.3V7.8C46.5,3.5,43,0,38.8,0
			S31,3.5,31,7.8v3.7C18.8,14.9,10.3,26,10.3,38.8v15.5c0,7.3-3.4,14.2-9.3,18.6c-1.1,0.9-1.4,2.5-0.5,3.6c0.5,0.7,1.3,1.1,2.1,1
			h23.5c-0.2,0.8-0.3,1.7-0.3,2.6c-0.2,7.1,5.4,13.1,12.6,13.3s13.1-5.4,13.3-12.6c0-0.2,0-0.5,0-0.7c0-0.9-0.1-1.7-0.3-2.6h23.5
			c1.4,0,2.6-1.1,2.6-2.6C77.5,74.1,77.1,73.3,76.5,72.8z M36.2,7.8c0-1.4,1.2-2.6,2.6-2.6c1.4,0,2.6,1.2,2.6,2.6v2.7
			c-0.8-0.1-1.7-0.1-2.6-0.1s-1.7,0-2.6,0.1L36.2,7.8z M46.5,80.1c0,4.3-3.5,7.7-7.8,7.7S31,84.3,31,80.1c0-0.9,0.1-1.7,0.4-2.6H46
			C46.3,78.3,46.5,79.2,46.5,80.1z M9,72.3c1.3-1.6,2.5-3.3,3.4-5.2c2.1-4,3.1-8.4,3.1-12.9V38.8c0-12.8,10.4-23.2,23.2-23.2
			S62,25.9,62,38.8v15.5c0,4.5,1,8.9,3.1,12.9c0.9,1.8,2.1,3.6,3.4,5.2H9z"/>
	</g>
</g>
</svg>
