<svg xmlns="http://www.w3.org/2000/svg" viewBox="0 0 18.45 19.99"><defs><style>.cls-1{fill:#333;stroke:#333;stroke-miterlimit:10;stroke-width:0.75px;}</style></defs><title>Asset 103</title><g id="Layer_2" data-name="Layer 2"><g id="alt_menu" data-name="alt menu"><path class="cls-1" d="M6.47,17.22H2.12A1.68,1.68,0,0,1,.6,14.69a2.33,2.33,0,0,1,.71-.83,2.94,2.94,0,0,0,1.21-2c.2-1.17.36-2.35.55-3.53A9.47,9.47,0,0,1,4,5.18,4.66,4.66,0,0,1,7.12,2.84l.27-.07A1.79,1.79,0,0,1,8.14.7a1.71,1.71,0,0,1,2,0,1.83,1.83,0,0,1,.8,2.1l.43.12a4.8,4.8,0,0,1,3.21,2.79,12,12,0,0,1,.87,3.17c.15.89.29,1.77.45,2.66a8.11,8.11,0,0,0,.21.83,2.84,2.84,0,0,0,1.09,1.53A2.26,2.26,0,0,1,18,15a1.64,1.64,0,0,1-1.58,2.27H12.3c-.28,0-.36.47-.48.7A2.83,2.83,0,0,1,9,19.6a2.79,2.79,0,0,1-2.45-2.21Zm3.8-13.59a.69.69,0,0,1-.42-1A1.15,1.15,0,0,0,10,2.07a.76.76,0,0,0-.61-.67.8.8,0,0,0-.87.29.78.78,0,0,0-.08.91.7.7,0,0,1-.52,1.08l-.54.12A3.7,3.7,0,0,0,5,5.44,6.76,6.76,0,0,0,4.12,8c-.22,1.33-.41,2.67-.63,4A4,4,0,0,1,1.85,14.7a1.41,1.41,0,0,0-.38.45.69.69,0,0,0,.66,1.09H16.37a.66.66,0,0,0,.66-1,1.27,1.27,0,0,0-.37-.52A4.07,4.07,0,0,1,15,12.14c-.2-1-.36-2-.53-3a12.7,12.7,0,0,0-.72-2.83A4,4,0,0,0,11.51,4C11.11,3.84,10.68,3.75,10.27,3.63ZM11,17.23H7.49a1.8,1.8,0,0,0,3.51,0Z"/></g></g></svg>