<svg xmlns="http://www.w3.org/2000/svg" viewBox="0 0 21.25 21.25"><defs><style>.cls-1{fill:#424242;stroke-width:0.5px;}.cls-1,.cls-2{stroke:#424242;stroke-miterlimit:10;}.cls-2{fill:none;stroke-width:1.25px;}</style></defs><title>Asset 66</title><g id="Layer_2" data-name="Layer 2"><g id="icons"><path class="cls-1" d="M6.13,14.46l8.35-8.35c.27-.27.64-.34.83-.15h0c.19.19.12.56-.15.83L6.81,15.14c-.27.27-.64.34-.83.15H6C5.79,15.1,5.86,14.73,6.13,14.46Z"/><path class="cls-1" d="M14.7,15.34,6,6.61c-.28-.28-.37-.66-.19-.84h0c.18-.18.55-.09.84.19l8.73,8.73c.28.28.37.66.19.84h0C15.35,15.71,15,15.62,14.7,15.34Z"/><circle class="cls-2" cx="10.63" cy="10.63" r="10"/></g></g></svg>