<svg xmlns="http://www.w3.org/2000/svg" viewBox="0 0 21 21"><defs><style>.cls-1{fill:#333;stroke:#333;stroke-miterlimit:10;}</style></defs><title>Asset 102</title><g id="Layer_2" data-name="Layer 2"><g id="alt_menu" data-name="alt menu"><path class="cls-1" d="M10.12.5h.77l.14,0A2.57,2.57,0,0,1,13.15,3a.2.2,0,0,0,.09.14c.16.08.33.13.48.21a.21.21,0,0,0,.28,0,2.41,2.41,0,0,1,1.54-.65,2.51,2.51,0,0,1,1.93.72,2.68,2.68,0,0,1,.75,1.08A2.5,2.5,0,0,1,17.71,7a.15.15,0,0,0,0,.2,3,3,0,0,1,.19.46.22.22,0,0,0,.24.18,2.45,2.45,0,0,1,2.1,1.36,6,6,0,0,1,.31.9v.77c0,.05,0,.1,0,.15a2.56,2.56,0,0,1-.78,1.43,2.51,2.51,0,0,1-1.63.68.15.15,0,0,0-.17.11,3.63,3.63,0,0,1-.19.46c-.06.12,0,.2.05.31a3.61,3.61,0,0,1,.48.8,2.46,2.46,0,0,1-.53,2.62,2.63,2.63,0,0,1-1.12.79,2.5,2.5,0,0,1-2.6-.53.15.15,0,0,0-.2,0,2.88,2.88,0,0,1-.46.19.22.22,0,0,0-.18.23,2.46,2.46,0,0,1-1.37,2.1,5.94,5.94,0,0,1-.88.3h-.77l-.15,0a2.57,2.57,0,0,1-2.07-2c0-.17,0-.39-.11-.51s-.33-.15-.5-.23-.2,0-.31.05a3.62,3.62,0,0,1-.8.48,2.46,2.46,0,0,1-2.64-.54,2.61,2.61,0,0,1-.77-1.08A2.5,2.5,0,0,1,3.3,14a.15.15,0,0,0,0-.2,2.88,2.88,0,0,1-.19-.46.22.22,0,0,0-.24-.18A2.45,2.45,0,0,1,.79,11.75a6,6,0,0,1-.29-.87q0-.38,0-.77l0-.17a2.54,2.54,0,0,1,2-2c.18,0,.4,0,.52-.11s.15-.34.23-.51A.21.21,0,0,0,3.26,7a2.14,2.14,0,0,1-.49-.81,2.5,2.5,0,0,1,.55-2.64,2.62,2.62,0,0,1,1.11-.78A2.49,2.49,0,0,1,7,3.3a.15.15,0,0,0,.2,0,3.12,3.12,0,0,1,.46-.19.22.22,0,0,0,.18-.24A2.45,2.45,0,0,1,9.22.81,6,6,0,0,1,10.12.5ZM8.61,3.15c0,.23,0,.44-.22.54l-1.19.5a.38.38,0,0,1-.46-.11,3.72,3.72,0,0,0-.33-.3,1.8,1.8,0,0,0-1.95-.19,2.31,2.31,0,0,0-.75.68,1.74,1.74,0,0,0-.33,1.19,1.85,1.85,0,0,0,.67,1.26.46.46,0,0,1,.1.58c-.15.33-.29.66-.42,1s-.19.32-.46.32H3.07a1.76,1.76,0,0,0-1.58.94,2,2,0,0,0-.07,1.76,1.59,1.59,0,0,0,1.06,1,4.52,4.52,0,0,0,.82.11c.16,0,.31,0,.38.21.17.4.35.81.51,1.22a.37.37,0,0,1-.1.44,4.33,4.33,0,0,0-.31.34,1.78,1.78,0,0,0-.19,1.93,2.33,2.33,0,0,0,.62.72,1.74,1.74,0,0,0,1.53.33,2,2,0,0,0,1-.63.41.41,0,0,1,.53-.1l1.07.45a.39.39,0,0,1,.28.42,3.53,3.53,0,0,0,0,.51A1.73,1.73,0,0,0,9.75,19.6a2,2,0,0,0,1.48,0,1.73,1.73,0,0,0,1-1,2.17,2.17,0,0,0,.13-.88.36.36,0,0,1,.2-.38l1.22-.51a.37.37,0,0,1,.45.11,3.73,3.73,0,0,0,.33.3,1.79,1.79,0,0,0,1.94.19,2.31,2.31,0,0,0,.75-.68,1.74,1.74,0,0,0,.33-1.19A1.82,1.82,0,0,0,17,14.3a.48.48,0,0,1-.1-.62c.12-.25.22-.51.33-.76.18-.44.13-.54.74-.54a1.78,1.78,0,0,0,1.73-1.28,2,2,0,0,0-.06-1.39,1.73,1.73,0,0,0-1-1,2.33,2.33,0,0,0-.85-.12.36.36,0,0,1-.38-.2c-.17-.4-.35-.81-.51-1.22a.37.37,0,0,1,.1-.44,4.44,4.44,0,0,0,.31-.34,1.79,1.79,0,0,0,.2-1.93,2.32,2.32,0,0,0-.68-.77,1.73,1.73,0,0,0-1.19-.33,1.85,1.85,0,0,0-1.26.67.45.45,0,0,1-.58.1l-.92-.39c-.37-.15-.4-.19-.4-.59a1.93,1.93,0,0,0-.2-.91A1.74,1.74,0,0,0,11,1.32a2,2,0,0,0-1.36.13A1.79,1.79,0,0,0,8.61,3.15Z"/><path class="cls-1" d="M13.77,10.51A3.27,3.27,0,1,1,10.5,7.23,3.26,3.26,0,0,1,13.77,10.51ZM10.49,8A2.51,2.51,0,1,0,13,10.5,2.52,2.52,0,0,0,10.49,8Z"/></g></g></svg>