<?xml version="1.0" encoding="utf-8"?>
<!-- Generator: Adobe Illustrator 21.0.2, SVG Export Plug-In . SVG Version: 6.00 Build 0)  -->
<svg version="1.1" id="Layer_1" xmlns="http://www.w3.org/2000/svg" xmlns:xlink="http://www.w3.org/1999/xlink" x="0px" y="0px"
	 viewBox="0 0 81.7 81.7" style="enable-background:new 0 0 81.7 81.7;" xml:space="preserve">
<style type="text/css">
	.st0{fill:#FFFFFF;}
</style>
<title>Asset 3</title>
<g id="Layer_2">
	<g id="Layer_1-2">
		<path class="st0" d="M31,81.2c-0.2,0-0.4,0-0.5-0.1c-3.7-1-7.3-2.4-10.7-4.4c-1-0.6-1.4-1.8-0.8-2.8c2.2-4,0.7-9.1-3.4-11.3
			c-2.4-1.3-5.4-1.3-7.8,0c-1,0.5-2.2,0.2-2.8-0.8C3,58.6,1.5,55,0.6,51.2c-0.3-1.1,0.3-2.1,1.4-2.5c3.4-1.1,5.7-4.3,5.7-7.9
			c0-3.6-2.3-6.7-5.6-7.8c-1.1-0.3-1.6-1.5-1.4-2.5c1-3.7,2.5-7.3,4.4-10.7c0.6-1,1.8-1.3,2.8-0.8c4.1,2.1,9.1,0.6,11.2-3.5
			c1.3-2.4,1.3-5.3,0-7.8c-0.5-1-0.1-2.2,0.8-2.8c3.3-2,6.9-3.5,10.7-4.4c1.1-0.3,2.2,0.3,2.5,1.3c1.1,3.4,4.3,5.7,7.9,5.7
			c3.6,0,6.7-2.3,7.9-5.7c0.3-1,1.4-1.6,2.5-1.4C55,1.5,58.6,3,61.9,5c1,0.6,1.3,1.8,0.8,2.8c-2.1,4.1-0.6,9.1,3.5,11.2
			c2.4,1.3,5.4,1.3,7.8,0c1-0.5,2.2-0.2,2.8,0.8c2,3.3,3.4,6.9,4.4,10.7c0.3,1.1-0.3,2.2-1.4,2.6c-4.4,1.5-6.7,6.2-5.2,10.5
			c0.8,2.5,2.8,4.4,5.2,5.2c1,0.3,1.6,1.4,1.3,2.5c-1,3.7-2.4,7.3-4.4,10.7c-0.6,1-1.8,1.3-2.8,0.8c-4-2.2-9.1-0.7-11.3,3.3
			c-1.3,2.5-1.3,5.4,0,7.9c0.5,1,0.2,2.2-0.8,2.8c-3.3,2-6.9,3.4-10.7,4.4c-1.1,0.3-2.1-0.3-2.5-1.3c-1.5-4.4-6.2-6.7-10.5-5.2
			c-2.5,0.8-4.4,2.8-5.2,5.2C32.7,80.6,31.9,81.2,31,81.2L31,81.2z M40.8,70c4.6,0,8.8,2.6,11,6.7c2.2-0.7,4.3-1.6,6.3-2.7
			C56,67.5,59.5,60.4,66,58.2c2.6-0.9,5.4-0.9,8,0c1.1-2,1.9-4.1,2.6-6.3c-6.1-3.2-8.4-10.8-5.2-16.9c1.2-2.2,3-4,5.2-5.2
			c-0.7-2.2-1.5-4.3-2.6-6.3c-6.5,2.2-13.6-1.3-15.8-7.8c-0.9-2.6-0.9-5.5,0-8.1c-2-1.1-4.1-1.9-6.3-2.6c-2.2,4.1-6.4,6.6-11,6.7
			c-4.6,0-8.8-2.6-11-6.7c-2.2,0.7-4.3,1.5-6.3,2.6c2.3,6.5-1.2,13.6-7.7,15.9c-2.7,0.9-5.6,0.9-8.3,0c-1.1,2-1.9,4.1-2.6,6.3
			c4.1,2.2,6.6,6.4,6.7,11c0,4.6-2.6,8.8-6.7,11c0.7,2.2,1.5,4.3,2.6,6.3c6.5-2.3,13.6,1.2,15.9,7.7c0.9,2.7,0.9,5.6,0,8.2
			c2,1.1,4.1,1.9,6.3,2.6C32,72.5,36.2,70,40.8,70z"/>
		<path class="st0" d="M31,81.7L31,81.7c-0.2,0-0.4,0-0.6-0.1c-3.8-1-7.4-2.5-10.8-4.5c-1.2-0.7-1.7-2.2-1-3.5
			c2.1-3.8,0.6-8.5-3.2-10.6c-2.3-1.2-5.1-1.3-7.4,0c-1.2,0.7-2.8,0.2-3.5-1c-2-3.4-3.5-7-4.5-10.8c-0.3-1.3,0.4-2.7,1.7-3.1
			c3.2-1.1,5.3-4.1,5.3-7.4c0-3.4-2.1-6.3-5.3-7.4c-1.3-0.4-2-1.8-1.7-3.1c1-3.8,2.5-7.4,4.5-10.8c0.7-1.2,2.2-1.7,3.5-1
			c3.8,2.1,8.5,0.6,10.6-3.2c1.2-2.3,1.3-5.1,0-7.4c-0.7-1.2-0.2-2.8,1-3.5c3.4-2,7-3.5,10.8-4.5c1.3-0.3,2.7,0.4,3.1,1.7
			c1.1,3.2,4.1,5.3,7.4,5.3c3.4,0,6.3-2.1,7.4-5.3c0.4-1.3,1.8-2,3.1-1.7c3.8,1,7.4,2.5,10.8,4.5c1.2,0.7,1.7,2.2,1,3.5
			c-2.1,3.8-0.6,8.5,3.2,10.6c2.3,1.2,5.1,1.3,7.4,0c1.2-0.7,2.8-0.2,3.5,1c2,3.4,3.5,7,4.5,10.8c0.3,1.3-0.4,2.6-1.7,3.1
			c-4.1,1.4-6.3,5.8-4.9,9.9c0.8,2.3,2.6,4.1,4.9,4.9c1.3,0.4,2,1.8,1.7,3.1c-1,3.8-2.5,7.4-4.5,10.8c-0.7,1.2-2.2,1.7-3.5,1
			c-3.8-2-8.5-0.6-10.6,3.2c-1.2,2.3-1.2,5,0,7.3c0.7,1.2,0.2,2.8-1,3.5c-3.4,2-7,3.5-10.8,4.5c-1.3,0.3-2.6-0.4-3.1-1.7
			c-1.4-4.1-5.8-6.3-9.9-4.9c-2.3,0.8-4.1,2.6-4.9,4.9C33.1,81,32.1,81.7,31,81.7z M11.7,61.2c4.9,0,8.8,4,8.8,8.8
			c0,1.5-0.4,2.9-1.1,4.2c-0.4,0.7-0.1,1.7,0.6,2.1c3.3,1.9,6.8,3.4,10.5,4.3c0.8,0.2,1.6-0.2,1.9-1C34,75,39,72.5,43.6,74.1
			c2.6,0.9,4.7,2.9,5.6,5.6c0.3,0.8,1.1,1.2,1.9,1c3.7-0.9,7.2-2.4,10.5-4.3c0.7-0.4,1-1.4,0.6-2.1c-2.4-4.3-0.8-9.6,3.4-12
			c2.7-1.5,5.9-1.5,8.6,0c0.7,0.4,1.7,0.2,2.1-0.6c1.9-3.3,3.4-6.8,4.3-10.5c0.2-0.8-0.2-1.6-1-1.9c-4.6-1.5-7.1-6.5-5.6-11.1
			c0.9-2.6,2.9-4.7,5.6-5.6c0.8-0.3,1.2-1.1,1-1.9c-1-3.7-2.4-7.2-4.4-10.5c-0.4-0.7-1.4-1-2.1-0.6c-4.3,2.4-9.6,0.8-12-3.4
			c-1.5-2.7-1.5-5.9,0-8.6c0.4-0.7,0.2-1.7-0.6-2.1C58.3,3.4,54.8,2,51.1,1c-0.8-0.2-1.6,0.2-1.9,1c-1.2,3.6-4.6,6-8.4,6
			c-3.8,0-7.1-2.4-8.3-6c-0.3-0.8-1.1-1.2-1.9-1c-3.7,1-7.2,2.4-10.5,4.4c-0.7,0.4-1,1.4-0.6,2.1c2.4,4.3,0.8,9.6-3.4,12
			c-2.7,1.5-5.9,1.5-8.6,0c-0.7-0.4-1.7-0.1-2.1,0.6C3.4,23.4,2,26.9,1,30.6c-0.2,0.8,0.2,1.6,1,1.9c3.6,1.2,6,4.6,6,8.3
			c0,3.8-2.4,7.1-6,8.3c-0.8,0.3-1.2,1.1-1,1.9c1,3.7,2.4,7.2,4.4,10.5c0.4,0.7,1.4,1,2.1,0.6C8.8,61.5,10.3,61.1,11.7,61.2z
			 M51.7,77.2l-0.2-0.4c-3.1-5.9-10.4-8.1-16.2-5c-2.1,1.1-3.9,2.9-5,5l-0.2,0.4l-0.4-0.1c-2.2-0.7-4.3-1.6-6.4-2.6l-0.4-0.2
			l0.1-0.4c2.1-6.3-1.2-13.1-7.5-15.2c-2.5-0.9-5.2-0.9-7.8,0l-0.4,0.1l-0.2-0.4c-1.1-2.1-1.9-4.2-2.6-6.4l-0.1-0.4l0.4-0.2
			c3.9-2.1,6.4-6.2,6.4-10.6c0-4.4-2.5-8.5-6.4-10.6L4.5,30l0.1-0.4c0.7-2.2,1.6-4.3,2.6-6.3l0.2-0.4l0.4,0.1
			c6.3,2.1,13.1-1.2,15.2-7.5c0.9-2.5,0.9-5.2,0-7.8l-0.1-0.4l0.4-0.2c2-1.1,4.2-1.9,6.4-2.6l0.4-0.1l0.2,0.4
			c2.1,3.9,6.2,6.4,10.6,6.4c4.4,0,8.5-2.5,10.6-6.4l0.2-0.4L52,4.6c2.2,0.7,4.3,1.6,6.4,2.6l0.4,0.2l-0.1,0.4
			c-2.1,6.3,1.2,13.1,7.5,15.2c2.5,0.8,5.2,0.8,7.7,0l0.4-0.1l0.2,0.4c1.1,2,1.9,4.2,2.6,6.4l0.1,0.4l-0.4,0.2
			c-5.9,3.1-8.1,10.4-5,16.2c1.1,2.1,2.9,3.9,5,5l0.4,0.2L77.1,52c-0.7,2.2-1.6,4.3-2.6,6.4l-0.2,0.4l-0.4-0.1
			c-6.3-2.1-13.1,1.2-15.2,7.5c-0.9,2.5-0.9,5.2,0,7.7l0.1,0.4l-0.4,0.2c-2.1,1.1-4.2,1.9-6.4,2.6L51.7,77.2z M24.1,73.8
			c1.7,0.9,3.6,1.6,5.4,2.2c3.6-6.2,11.5-8.4,17.7-4.8c2,1.2,3.7,2.8,4.8,4.8c1.9-0.6,3.7-1.4,5.4-2.2c-2.1-6.9,1.8-14.1,8.7-16.2
			c2.5-0.7,5.1-0.7,7.5,0c0.9-1.8,1.6-3.6,2.2-5.4c-6.2-3.6-8.4-11.5-4.8-17.7c1.2-2,2.8-3.7,4.8-4.8c-0.6-1.9-1.4-3.7-2.2-5.4
			c-6.9,2.1-14.1-1.8-16.2-8.7c-0.7-2.5-0.7-5.1,0-7.5C55.8,7,54,6.3,52.1,5.7c-2.3,4.1-6.6,6.6-11.3,6.6c-4.7,0-9-2.5-11.3-6.6
			c-1.9,0.6-3.7,1.3-5.4,2.2c2.1,6.9-1.8,14.1-8.6,16.2c-2.5,0.8-5.1,0.8-7.6,0c-0.9,1.7-1.6,3.6-2.2,5.4c4.1,2.3,6.6,6.6,6.6,11.3
			c0,4.7-2.5,9-6.5,11.3C6.3,54,7,55.8,7.9,57.6c6.9-2.1,14.1,1.8,16.2,8.7C24.9,68.7,24.9,71.3,24.1,73.8z"/>
		<path class="st0" d="M40.8,53.3c-6.9,0-12.5-5.6-12.5-12.5c0-6.9,5.6-12.5,12.5-12.5S53.3,34,53.3,40.9c0,0,0,0,0,0
			C53.3,47.7,47.7,53.3,40.8,53.3z M40.8,32.5c-4.6,0-8.3,3.7-8.3,8.3s3.7,8.3,8.3,8.3s8.3-3.7,8.3-8.3l0,0
			C49.2,36.3,45.4,32.5,40.8,32.5z"/>
		<path class="st0" d="M40.8,53.8c-7.2,0-13-5.8-13-13s5.8-13,13-13s13,5.8,13,13S48,53.8,40.8,53.8z M40.8,28.8
			c-6.6,0-12,5.4-12,12s5.4,12,12,12s12-5.4,12-12C52.8,34.2,47.5,28.9,40.8,28.8L40.8,28.8z M40.8,49.6c-4.9,0-8.8-3.9-8.8-8.8
			S36,32,40.8,32s8.8,3.9,8.8,8.8l0,0C49.7,45.7,45.8,49.6,40.8,49.6C40.9,49.7,40.9,49.7,40.8,49.6L40.8,49.6z M40.8,33
			c-4.3,0-7.8,3.5-7.8,7.8s3.5,7.8,7.8,7.8s7.8-3.5,7.8-7.8l0,0C48.7,36.5,45.2,33,40.8,33L40.8,33z"/>
	</g>
</g>
</svg>
