<svg xmlns="http://www.w3.org/2000/svg" viewBox="0 0 22.25 19.18"><defs><style>.cls-1{fill:#424242;stroke:#424242;stroke-miterlimit:10;stroke-width:0.25px;}</style></defs><title>Asset 46</title><g id="Layer_2" data-name="Layer 2"><g id="frontpage"><path class="cls-1" d="M.13,9.3c.07-.28.11-.57.2-.85a4.15,4.15,0,0,1,2.4-2.64A.33.33,0,0,0,3,5.52,3.07,3.07,0,0,1,7.59,3.29l.11.06a5.78,5.78,0,0,1,3.49-3,5.66,5.66,0,0,1,3.44,0,5.8,5.8,0,0,1,4,5.74,8.43,8.43,0,0,1,.84.23,3.84,3.84,0,0,1,2.58,3.16.78.78,0,0,0,0,.12v.82c-.07.28-.12.57-.21.85A3.89,3.89,0,0,1,18.16,14c-1.28,0-2.56,0-3.85,0-.28,0-.46-.11-.52-.3a.39.39,0,0,1,.16-.49.86.86,0,0,1,.41-.09H18.2A3,3,0,0,0,18.35,7c-.49,0-.63-.2-.59-.69a4.72,4.72,0,0,0-1.11-3.55A4.66,4.66,0,0,0,12.74,1,4.77,4.77,0,0,0,8.37,4a1.32,1.32,0,0,1-.2.35c-.19.2-.44.16-.7-.07A2.17,2.17,0,0,0,5,4,2.14,2.14,0,0,0,3.8,5.9c0,.38-.1.49-.45.6A3.37,3.37,0,0,0,3.72,13a4.14,4.14,0,0,0,.77.06H7.91a.81.81,0,0,1,.35.07.39.39,0,0,1,.21.41.4.4,0,0,1-.29.36.76.76,0,0,1-.23,0c-1.3,0-2.59,0-3.89,0A4.19,4.19,0,0,1,.29,10.88c-.06-.24-.11-.48-.17-.73Z"/><path class="cls-1" d="M11.12,19l-.45-.47-2-2c-.28-.28-.24-.64.08-.77a.47.47,0,0,1,.54.15l1.18,1.19a1.34,1.34,0,0,1,.13.17l.07,0V17q0-3.66,0-7.32a.73.73,0,0,1,.13-.43.4.4,0,0,1,.71.17,1.18,1.18,0,0,1,0,.32q0,3.62,0,7.24v.28l.16-.13L13,15.9a.44.44,0,0,1,.75.09.45.45,0,0,1-.12.53Z"/></g></g></svg>