<svg xmlns="http://www.w3.org/2000/svg" viewBox="0 0 19 19"><defs><style>.cls-1{fill:#424242;}</style></defs><title>Asset 41</title><g id="Layer_2" data-name="Layer 2"><g id="frontpage"><path class="cls-1" d="M19,4.75a2.07,2.07,0,0,1-.63.91l-13,13A3.27,3.27,0,0,1,4.9,19H.45A.86.86,0,0,1,0,18.55V14.1a4.56,4.56,0,0,1,.39-.52l13-13a2,2,0,0,1,.9-.61h.41a2,2,0,0,1,.9.61Q17,2,18.36,3.42a2.08,2.08,0,0,1,.64.93Zm-5.43,4-3.3-3.3-8.21,8.2,3.3,3.3Zm2.57-2.53.09-.08L17.36,5a.59.59,0,0,0,0-.91L14.9,1.63a.59.59,0,0,0-.9,0L12.87,2.77l-.07.09Zm-5-1.65,3.31,3.31.81-.8L11.93,3.74Zm-9.93,10s0,.1,0,.16c0,.62,0,1.24,0,1.85a1.14,1.14,0,0,0,.49,1.14.55.55,0,0,0,.27.11H4.46Z"/></g></g></svg>