<svg xmlns="http://www.w3.org/2000/svg" viewBox="0 0 23.54 12.07"><defs><style>.cls-1{fill:#424242;stroke:#424242;stroke-miterlimit:10;stroke-width:0.25px;}</style></defs><title>Asset 51</title><g id="Layer_2" data-name="Layer 2"><g id="icons"><path class="cls-1" d="M11.86,11.95a15.41,15.41,0,0,1-7.51-2.1A14.63,14.63,0,0,1,1.08,7.42a7.22,7.22,0,0,1-.69-.8.78.78,0,0,1,0-1.18A10.8,10.8,0,0,1,3.1,3,16.28,16.28,0,0,1,10,.25a13.59,13.59,0,0,1,7.18,1,16.22,16.22,0,0,1,5,3.16,8.83,8.83,0,0,1,.92,1c.38.49.39.73,0,1.2a11.82,11.82,0,0,1-1.47,1.5A16.34,16.34,0,0,1,13,11.88h-.16Zm-.09-10.8a12.33,12.33,0,0,0-3.85.61A16.37,16.37,0,0,0,1.38,5.7c-.32.32-.31.34,0,.66a14.35,14.35,0,0,0,3.12,2.4,13.1,13.1,0,0,0,11.7,1.34,16.15,16.15,0,0,0,5.94-3.74c.31-.31.33-.38,0-.66a28.2,28.2,0,0,0-2.49-2A14.15,14.15,0,0,0,11.77,1.14Z"/><path class="cls-1" d="M11.78,2.15A4,4,0,0,1,15.65,6a4,4,0,0,1-3.88,3.88A4,4,0,0,1,7.88,6,4,4,0,0,1,11.78,2.15Zm2.85,3.92a2.79,2.79,0,0,0-2.84-2.9A2.78,2.78,0,0,0,8.9,6,2.79,2.79,0,0,0,11.72,8.9,2.78,2.78,0,0,0,14.63,6.07Z"/></g></g></svg>