<svg xmlns="http://www.w3.org/2000/svg" viewBox="0 0 39 39"><defs><style>.cls-1,.cls-2,.cls-3{fill:#ffcb51;}.cls-1{opacity:0.2;}.cls-2{opacity:0.4;}.cls-4{fill:#fff;stroke:#fff;stroke-miterlimit:10;stroke-width:0.5px;}</style></defs><title>Asset 85</title><g id="Layer_2" data-name="Layer 2"><g id="overlay"><path class="cls-1" d="M19.5,39A19.5,19.5,0,1,1,39,19.5,19.52,19.52,0,0,1,19.5,39Z"/><path class="cls-2" d="M19.5,37.05A17.55,17.55,0,1,1,37.05,19.5,17.57,17.57,0,0,1,19.5,37.05Z"/><circle class="cls-3" cx="19.5" cy="19.5" r="15.6"/><path class="cls-4" d="M19,24.41a.72.72,0,0,1-.51-.21l-3.84-3.84a.5.5,0,0,1,.71-.71L19,23.29l6.15-6.15a.5.5,0,0,1,.71.71l-6.34,6.34A.72.72,0,0,1,19,24.41Zm-.19-.92h0Zm.39,0h0Z"/></g></g></svg>