<?xml version="1.0" encoding="UTF-8"?>
<svg width="1410px" height="1847px" viewBox="0 0 1410 1847" version="1.1" xmlns="http://www.w3.org/2000/svg" xmlns:xlink="http://www.w3.org/1999/xlink">
    <!-- Generator: Sketch 43.2 (39069) - http://www.bohemiancoding.com/sketch -->
    <title>Group 4</title>
    <desc>Created with Sketch.</desc>
    <defs>
        <polygon id="path-1" points="34.9995625 35 0 35 0 0.0004375 34.9995625 0.0004375 34.9995625 35"></polygon>
        <polygon id="path-3" points="30.9996125 31 0 31 0 0.0003875 30.9996125 0.0003875 30.9996125 31"></polygon>
        <polygon id="path-5" points="30.9996125 31 0 31 0 0.0003875 30.9996125 0.0003875 30.9996125 31"></polygon>
        <polygon id="path-7" points="27.99965 28 0 28 0 0.00035 27.99965 0.00035 27.99965 28"></polygon>
        <polygon id="path-9" points="26.9996625 27 0 27 0 0.0003375 26.9996625 0.0003375 26.9996625 27"></polygon>
        <polygon id="path-11" points="28.9996375 29 0 29 0 0.0003625 28.9996375 0.0003625 28.9996375 29"></polygon>
    </defs>
    <g id="Welcome" stroke="none" stroke-width="1" fill="none" fill-rule="evenodd" opacity="0.195652174">
        <g id="Desktop-HD" transform="translate(-5.000000, -139.000000)">
            <g id="Group-4" transform="translate(0.000000, 134.000000)">
                <g id="Group" transform="translate(0.000000, 1278.000000)">
                    <g id="Icon-Image" opacity="0.77" transform="translate(1251.907283, 478.696862) rotate(-159.000000) translate(-1251.907283, -478.696862) translate(1231.907283, 458.696862)">
                        <rect id="16X16" x="0" y="0" width="40" height="40"></rect>
                        <g id="Shape-Image" transform="translate(0.000000, 5.000000)" fill="#424242">
                            <path d="M36.25,27.5 L3.75,27.5 C3.06,27.5 2.5,26.9375 2.5,26.25 L2.5,25.5175 L11.25,16.7675 L19.115,24.635 C19.3425,24.86 19.655,25 20,25 C20.12,25 20.2275,24.9625 20.3375,24.9325 L20.3425,24.95 L28.6975,22.565 L37.5,25.865 L37.5,26.25 C37.5,26.9375 36.9375,27.5 36.25,27.5 M3.75,2.5 L36.25,2.5 C36.9375,2.5 37.5,3.06 37.5,3.75 L37.5,23.1975 L29.19,20.08 L29.1875,20.0875 C29.05,20.0375 28.905,20 28.75,20 C28.63,20 28.5225,20.0375 28.4125,20.0675 L28.405,20.05 L20.365,22.3475 L12.135,14.1175 C11.9075,13.89 11.595,13.75 11.25,13.75 C10.905,13.75 10.5925,13.89 10.365,14.1175 L2.5,21.9825 L2.5,3.75 C2.5,3.06 3.06,2.5 3.75,2.5 M36.25,0 L3.75,0 C1.6825,0 0,1.6825 0,3.75 L0,26.25 C0,28.3175 1.6825,30 3.75,30 L36.25,30 C38.3175,30 40,28.3175 40,26.25 L40,3.75 C40,1.6825 38.3175,0 36.25,0" id="Fill-1"></path>
                            <path d="M28.75,7.5 C30.8175,7.5 32.5,9.1825 32.5,11.25 C32.5,13.3175 30.8175,15 28.75,15 C26.6825,15 25,13.3175 25,11.25 C25,9.1825 26.6825,7.5 28.75,7.5 M28.75,17.5 C32.1975,17.5 35,14.695 35,11.25 C35,7.805 32.1975,5 28.75,5 C25.3025,5 22.5,7.805 22.5,11.25 C22.5,14.695 25.3025,17.5 28.75,17.5" id="Fill-3"></path>
                        </g>
                    </g>
                    <g id="Icon-Image" opacity="0.78" transform="translate(1233.077383, 294.050148) rotate(-26.000000) translate(-1233.077383, -294.050148) translate(1217.077383, 278.050148)">
                        <rect id="16X16" x="0" y="0" width="32" height="32"></rect>
                        <g id="Shape-Image" transform="translate(0.000000, 4.000000)" fill="#424242">
                            <path d="M29,22 L3,22 C2.448,22 2,21.55 2,21 L2,20.414 L9,13.414 L15.292,19.708 C15.474,19.888 15.724,20 16,20 C16.096,20 16.182,19.97 16.27,19.946 L16.274,19.96 L22.958,18.052 L30,20.692 L30,21 C30,21.55 29.55,22 29,22 M3,2 L29,2 C29.55,2 30,2.448 30,3 L30,18.558 L23.352,16.064 L23.35,16.07 C23.24,16.03 23.124,16 23,16 C22.904,16 22.818,16.03 22.73,16.054 L22.724,16.04 L16.292,17.878 L9.708,11.294 C9.526,11.112 9.276,11 9,11 C8.724,11 8.474,11.112 8.292,11.294 L2,17.586 L2,3 C2,2.448 2.448,2 3,2 M29,0 L3,0 C1.346,0 0,1.346 0,3 L0,21 C0,22.654 1.346,24 3,24 L29,24 C30.654,24 32,22.654 32,21 L32,3 C32,1.346 30.654,0 29,0" id="Fill-1"></path>
                            <path d="M23,6 C24.654,6 26,7.346 26,9 C26,10.654 24.654,12 23,12 C21.346,12 20,10.654 20,9 C20,7.346 21.346,6 23,6 M23,14 C25.758,14 28,11.756 28,9 C28,6.244 25.758,4 23,4 C20.242,4 18,6.244 18,9 C18,11.756 20.242,14 23,14" id="Fill-3"></path>
                        </g>
                    </g>
                    <g id="Icon-Image" opacity="0.95" transform="translate(1004.965960, 568.564956) rotate(-268.000000) translate(-1004.965960, -568.564956) translate(984.965960, 548.564956)">
                        <rect id="16X16" x="0" y="0" width="40" height="40"></rect>
                        <g id="Shape-Image" transform="translate(0.000000, 5.000000)" fill="#424242">
                            <path d="M36.25,27.5 L3.75,27.5 C3.06,27.5 2.5,26.9375 2.5,26.25 L2.5,25.5175 L11.25,16.7675 L19.115,24.635 C19.3425,24.86 19.655,25 20,25 C20.12,25 20.2275,24.9625 20.3375,24.9325 L20.3425,24.95 L28.6975,22.565 L37.5,25.865 L37.5,26.25 C37.5,26.9375 36.9375,27.5 36.25,27.5 M3.75,2.5 L36.25,2.5 C36.9375,2.5 37.5,3.06 37.5,3.75 L37.5,23.1975 L29.19,20.08 L29.1875,20.0875 C29.05,20.0375 28.905,20 28.75,20 C28.63,20 28.5225,20.0375 28.4125,20.0675 L28.405,20.05 L20.365,22.3475 L12.135,14.1175 C11.9075,13.89 11.595,13.75 11.25,13.75 C10.905,13.75 10.5925,13.89 10.365,14.1175 L2.5,21.9825 L2.5,3.75 C2.5,3.06 3.06,2.5 3.75,2.5 M36.25,0 L3.75,0 C1.6825,0 0,1.6825 0,3.75 L0,26.25 C0,28.3175 1.6825,30 3.75,30 L36.25,30 C38.3175,30 40,28.3175 40,26.25 L40,3.75 C40,1.6825 38.3175,0 36.25,0" id="Fill-1"></path>
                            <path d="M28.75,7.5 C30.8175,7.5 32.5,9.1825 32.5,11.25 C32.5,13.3175 30.8175,15 28.75,15 C26.6825,15 25,13.3175 25,11.25 C25,9.1825 26.6825,7.5 28.75,7.5 M28.75,17.5 C32.1975,17.5 35,14.695 35,11.25 C35,7.805 32.1975,5 28.75,5 C25.3025,5 22.5,7.805 22.5,11.25 C22.5,14.695 25.3025,17.5 28.75,17.5" id="Fill-3"></path>
                        </g>
                    </g>
                    <g id="Icon-Image" opacity="0.94" transform="translate(949.538634, 94.592587) rotate(-329.000000) translate(-949.538634, -94.592587) translate(933.038634, 78.092587)">
                        <rect id="16X16" x="0" y="0" width="33" height="33"></rect>
                        <g id="Shape-Image" transform="translate(0.000000, 4.125000)" fill="#424242">
                            <path d="M29.90625,22.6875 L3.09375,22.6875 C2.5245,22.6875 2.0625,22.2234375 2.0625,21.65625 L2.0625,21.0519375 L9.28125,13.8331875 L15.769875,20.323875 C15.9575625,20.5095 16.215375,20.625 16.5,20.625 C16.599,20.625 16.6876875,20.5940625 16.7784375,20.5693125 L16.7825625,20.58375 L23.6754375,18.616125 L30.9375,21.338625 L30.9375,21.65625 C30.9375,22.2234375 30.4734375,22.6875 29.90625,22.6875 M3.09375,2.0625 L29.90625,2.0625 C30.4734375,2.0625 30.9375,2.5245 30.9375,3.09375 L30.9375,19.1379375 L24.08175,16.566 L24.0796875,16.5721875 C23.96625,16.5309375 23.846625,16.5 23.71875,16.5 C23.61975,16.5 23.5310625,16.5309375 23.4403125,16.5556875 L23.434125,16.54125 L16.801125,18.4366875 L10.011375,11.6469375 C9.8236875,11.45925 9.565875,11.34375 9.28125,11.34375 C8.996625,11.34375 8.7388125,11.45925 8.551125,11.6469375 L2.0625,18.1355625 L2.0625,3.09375 C2.0625,2.5245 2.5245,2.0625 3.09375,2.0625 M29.90625,0 L3.09375,0 C1.3880625,0 0,1.3880625 0,3.09375 L0,21.65625 C0,23.3619375 1.3880625,24.75 3.09375,24.75 L29.90625,24.75 C31.6119375,24.75 33,23.3619375 33,21.65625 L33,3.09375 C33,1.3880625 31.6119375,0 29.90625,0" id="Fill-1"></path>
                            <path d="M23.71875,6.1875 C25.4244375,6.1875 26.8125,7.5755625 26.8125,9.28125 C26.8125,10.9869375 25.4244375,12.375 23.71875,12.375 C22.0130625,12.375 20.625,10.9869375 20.625,9.28125 C20.625,7.5755625 22.0130625,6.1875 23.71875,6.1875 M23.71875,14.4375 C26.5629375,14.4375 28.875,12.123375 28.875,9.28125 C28.875,6.439125 26.5629375,4.125 23.71875,4.125 C20.8745625,4.125 18.5625,6.439125 18.5625,9.28125 C18.5625,12.123375 20.8745625,14.4375 23.71875,14.4375" id="Fill-3"></path>
                        </g>
                    </g>
                    <g id="Icon-Image" opacity="0.95" transform="translate(243.474255, 486.000344) rotate(-207.000000) translate(-243.474255, -486.000344) translate(229.474255, 472.000344)">
                        <rect id="16X16" x="0" y="0" width="28" height="28"></rect>
                        <g id="Shape-Image" transform="translate(0.000000, 3.500000)" fill="#424242">
                            <path d="M25.375,19.25 L2.625,19.25 C2.142,19.25 1.75,18.85625 1.75,18.375 L1.75,17.86225 L7.875,11.73725 L13.3805,17.2445 C13.53975,17.402 13.7585,17.5 14,17.5 C14.084,17.5 14.15925,17.47375 14.23625,17.45275 L14.23975,17.465 L20.08825,15.7955 L26.25,18.1055 L26.25,18.375 C26.25,18.85625 25.85625,19.25 25.375,19.25 M2.625,1.75 L25.375,1.75 C25.85625,1.75 26.25,2.142 26.25,2.625 L26.25,16.23825 L20.433,14.056 L20.43125,14.06125 C20.335,14.02625 20.2335,14 20.125,14 C20.041,14 19.96575,14.02625 19.88875,14.04725 L19.8835,14.035 L14.2555,15.64325 L8.4945,9.88225 C8.33525,9.723 8.1165,9.625 7.875,9.625 C7.6335,9.625 7.41475,9.723 7.2555,9.88225 L1.75,15.38775 L1.75,2.625 C1.75,2.142 2.142,1.75 2.625,1.75 M25.375,0 L2.625,0 C1.17775,0 0,1.17775 0,2.625 L0,18.375 C0,19.82225 1.17775,21 2.625,21 L25.375,21 C26.82225,21 28,19.82225 28,18.375 L28,2.625 C28,1.17775 26.82225,0 25.375,0" id="Fill-1"></path>
                            <path d="M20.125,5.25 C21.57225,5.25 22.75,6.42775 22.75,7.875 C22.75,9.32225 21.57225,10.5 20.125,10.5 C18.67775,10.5 17.5,9.32225 17.5,7.875 C17.5,6.42775 18.67775,5.25 20.125,5.25 M20.125,12.25 C22.53825,12.25 24.5,10.2865 24.5,7.875 C24.5,5.4635 22.53825,3.5 20.125,3.5 C17.71175,3.5 15.75,5.4635 15.75,7.875 C15.75,10.2865 17.71175,12.25 20.125,12.25" id="Fill-3"></path>
                        </g>
                    </g>
                    <g id="Icon-Image" opacity="0.79" transform="translate(29.364625, 297.085679) rotate(-318.000000) translate(-29.364625, -297.085679) translate(8.864625, 276.585679)">
                        <rect id="16X16" x="0" y="0" width="41" height="41"></rect>
                        <g id="Shape-Image" transform="translate(0.000000, 5.125000)" fill="#424242">
                            <path d="M37.15625,28.1875 L3.84375,28.1875 C3.1365,28.1875 2.5625,27.6109375 2.5625,26.90625 L2.5625,26.1554375 L11.53125,17.1866875 L19.592875,25.250875 C19.8260625,25.4815 20.146375,25.625 20.5,25.625 C20.623,25.625 20.7331875,25.5865625 20.8459375,25.5558125 L20.8510625,25.57375 L29.4149375,23.129125 L38.4375,26.511625 L38.4375,26.90625 C38.4375,27.6109375 37.8609375,28.1875 37.15625,28.1875 M3.84375,2.5625 L37.15625,2.5625 C37.8609375,2.5625 38.4375,3.1365 38.4375,3.84375 L38.4375,23.7774375 L29.91975,20.582 L29.9171875,20.5896875 C29.77625,20.5384375 29.627625,20.5 29.46875,20.5 C29.34575,20.5 29.2355625,20.5384375 29.1228125,20.5691875 L29.115125,20.55125 L20.874125,22.9061875 L12.438375,14.4704375 C12.2051875,14.23725 11.884875,14.09375 11.53125,14.09375 C11.177625,14.09375 10.8573125,14.23725 10.624125,14.4704375 L2.5625,22.5320625 L2.5625,3.84375 C2.5625,3.1365 3.1365,2.5625 3.84375,2.5625 M37.15625,0 L3.84375,0 C1.7245625,0 0,1.7245625 0,3.84375 L0,26.90625 C0,29.0254375 1.7245625,30.75 3.84375,30.75 L37.15625,30.75 C39.2754375,30.75 41,29.0254375 41,26.90625 L41,3.84375 C41,1.7245625 39.2754375,0 37.15625,0" id="Fill-1"></path>
                            <path d="M29.46875,7.6875 C31.5879375,7.6875 33.3125,9.4120625 33.3125,11.53125 C33.3125,13.6504375 31.5879375,15.375 29.46875,15.375 C27.3495625,15.375 25.625,13.6504375 25.625,11.53125 C25.625,9.4120625 27.3495625,7.6875 29.46875,7.6875 M29.46875,17.9375 C33.0024375,17.9375 35.875,15.062375 35.875,11.53125 C35.875,8.000125 33.0024375,5.125 29.46875,5.125 C25.9350625,5.125 23.0625,8.000125 23.0625,11.53125 C23.0625,15.062375 25.9350625,17.9375 29.46875,17.9375" id="Fill-3"></path>
                        </g>
                    </g>
                    <g id="Icon-Edit" opacity="0.87" transform="translate(1102.689501, 25.018966) rotate(-124.000000) translate(-1102.689501, -25.018966) translate(1085.189501, 7.518966)">
                        <rect id="16X16" x="0" y="0" width="35" height="35"></rect>
                        <g id="Shape-Edit">
                            <g id="Group-3">
                                <mask id="mask-2" fill="white">
                                    <use xlink:href="#path-1"></use>
                                </mask>
                                <g id="Clip-2"></g>
                                <path d="M13.6933125,30.697625 L2.4233125,32.5766875 L4.302375,21.3066875 L22.9683125,2.64075 L32.35925,12.0316875 L13.6933125,30.697625 Z M34.9995625,12.0316875 C34.9995625,11.7298125 34.8770625,11.4541875 34.678,11.2573125 L23.7426875,0.322 C23.5458125,0.1229375 23.2701875,0.0004375 22.9683125,0.0004375 C22.6664375,0.0004375 22.393,0.1229375 22.196125,0.3198125 L2.508625,20.0073125 C2.351125,20.1648125 2.2614375,20.377 2.2220625,20.6045 L2.202375,20.6023125 L0.014875,33.7273125 L0.0345625,33.7295 C0.0258125,33.79075 -0.0004375,33.84325 -0.0004375,33.9066875 C-0.0004375,34.5104375 0.4895625,35.0004375 1.0933125,35.0004375 C1.15675,35.0004375 1.20925,34.9741875 1.2705,34.9654375 L1.2726875,34.985125 L14.3976875,32.797625 L14.3955,32.7779375 C14.623,32.7385625 14.8351875,32.648875 14.9926875,32.491375 L34.6801875,12.803875 C34.8770625,12.607 34.9995625,12.3335625 34.9995625,12.0316875 L34.9995625,12.0316875 Z" id="Fill-1" fill="#424242" mask="url(#mask-2)"></path>
                            </g>
                            <path d="M11.710125,27.6635625 L7.3373125,23.29075 C7.13825,23.0916875 6.8648125,22.9691875 6.5629375,22.9691875 C5.9591875,22.9691875 5.4691875,23.4591875 5.4691875,24.0629375 C5.4691875,24.3648125 5.5916875,24.63825 5.7885625,24.835125 L10.1635625,29.210125 C10.362625,29.4091875 10.6360625,29.5316875 10.9379375,29.5316875 C11.5416875,29.5316875 12.0316875,29.0416875 12.0316875,28.4379375 C12.0316875,28.1360625 11.9091875,27.862625 11.710125,27.6635625" id="Fill-4" fill="#424242"></path>
                        </g>
                    </g>
                    <g id="Icon-Edit" opacity="0.97" transform="translate(987.272726, 213.227981) rotate(-195.000000) translate(-987.272726, -213.227981) translate(971.772726, 197.727981)">
                        <rect id="16X16" x="0" y="0" width="31" height="31"></rect>
                        <g id="Shape-Edit">
                            <g id="Group-3">
                                <mask id="mask-4" fill="white">
                                    <use xlink:href="#path-3"></use>
                                </mask>
                                <g id="Clip-2"></g>
                                <path d="M12.1283625,27.189325 L2.1463625,28.8536375 L3.810675,18.8716375 L20.3433625,2.33895 L28.66105,10.6566375 L12.1283625,27.189325 Z M30.9996125,10.6566375 C30.9996125,10.3892625 30.8911125,10.1451375 30.7148,9.9707625 L21.0292375,0.2852 C20.8548625,0.1088875 20.6107375,0.0003875 20.3433625,0.0003875 C20.0759875,0.0003875 19.8338,0.1088875 19.659425,0.2832625 L2.221925,17.7207625 C2.082425,17.8602625 2.0029875,18.0482 1.9681125,18.2497 L1.950675,18.2477625 L0.013175,29.8727625 L0.0306125,29.8747 C0.0228625,29.92895 -0.0003875,29.97545 -0.0003875,30.0316375 C-0.0003875,30.5663875 0.4336125,31.0003875 0.9683625,31.0003875 C1.02455,31.0003875 1.07105,30.9771375 1.1253,30.9693875 L1.1272375,30.986825 L12.7522375,29.049325 L12.7503,29.0318875 C12.9518,28.9970125 13.1397375,28.917575 13.2792375,28.778075 L30.7167375,11.340575 C30.8911125,11.1662 30.9996125,10.9240125 30.9996125,10.6566375 L30.9996125,10.6566375 Z" id="Fill-1" fill="#424242" mask="url(#mask-4)"></path>
                            </g>
                            <path d="M10.371825,24.5020125 L6.4987625,20.62895 C6.32245,20.4526375 6.0802625,20.3441375 5.8128875,20.3441375 C5.2781375,20.3441375 4.8441375,20.7781375 4.8441375,21.3128875 C4.8441375,21.5802625 4.9526375,21.82245 5.1270125,21.996825 L9.0020125,25.871825 C9.178325,26.0481375 9.4205125,26.1566375 9.6878875,26.1566375 C10.2226375,26.1566375 10.6566375,25.7226375 10.6566375,25.1878875 C10.6566375,24.9205125 10.5481375,24.678325 10.371825,24.5020125" id="Fill-4" fill="#424242"></path>
                        </g>
                    </g>
                    <g id="Icon-Edit" opacity="0.9" transform="translate(699.401820, 531.966774) rotate(-146.000000) translate(-699.401820, -531.966774) translate(683.901820, 516.466774)">
                        <rect id="16X16" x="0" y="0" width="31" height="31"></rect>
                        <g id="Shape-Edit">
                            <g id="Group-3">
                                <mask id="mask-6" fill="white">
                                    <use xlink:href="#path-5"></use>
                                </mask>
                                <g id="Clip-2"></g>
                                <path d="M12.1283625,27.189325 L2.1463625,28.8536375 L3.810675,18.8716375 L20.3433625,2.33895 L28.66105,10.6566375 L12.1283625,27.189325 Z M30.9996125,10.6566375 C30.9996125,10.3892625 30.8911125,10.1451375 30.7148,9.9707625 L21.0292375,0.2852 C20.8548625,0.1088875 20.6107375,0.0003875 20.3433625,0.0003875 C20.0759875,0.0003875 19.8338,0.1088875 19.659425,0.2832625 L2.221925,17.7207625 C2.082425,17.8602625 2.0029875,18.0482 1.9681125,18.2497 L1.950675,18.2477625 L0.013175,29.8727625 L0.0306125,29.8747 C0.0228625,29.92895 -0.0003875,29.97545 -0.0003875,30.0316375 C-0.0003875,30.5663875 0.4336125,31.0003875 0.9683625,31.0003875 C1.02455,31.0003875 1.07105,30.9771375 1.1253,30.9693875 L1.1272375,30.986825 L12.7522375,29.049325 L12.7503,29.0318875 C12.9518,28.9970125 13.1397375,28.917575 13.2792375,28.778075 L30.7167375,11.340575 C30.8911125,11.1662 30.9996125,10.9240125 30.9996125,10.6566375 L30.9996125,10.6566375 Z" id="Fill-1" fill="#424242" mask="url(#mask-6)"></path>
                            </g>
                            <path d="M10.371825,24.5020125 L6.4987625,20.62895 C6.32245,20.4526375 6.0802625,20.3441375 5.8128875,20.3441375 C5.2781375,20.3441375 4.8441375,20.7781375 4.8441375,21.3128875 C4.8441375,21.5802625 4.9526375,21.82245 5.1270125,21.996825 L9.0020125,25.871825 C9.178325,26.0481375 9.4205125,26.1566375 9.6878875,26.1566375 C10.2226375,26.1566375 10.6566375,25.7226375 10.6566375,25.1878875 C10.6566375,24.9205125 10.5481375,24.678325 10.371825,24.5020125" id="Fill-4" fill="#424242"></path>
                        </g>
                    </g>
                    <g id="Icon-Edit" transform="translate(414.579905, 201.589752) rotate(-164.000000) translate(-414.579905, -201.589752) translate(400.579905, 187.589752)">
                        <rect id="16X16" x="0" y="0" width="28" height="28"></rect>
                        <g id="Shape-Edit">
                            <g id="Group-3">
                                <mask id="mask-8" fill="white">
                                    <use xlink:href="#path-7"></use>
                                </mask>
                                <g id="Clip-2"></g>
                                <path d="M10.95465,24.5581 L1.93865,26.06135 L3.4419,17.04535 L18.37465,2.1126 L25.8874,9.62535 L10.95465,24.5581 Z M27.99965,9.62535 C27.99965,9.38385 27.90165,9.16335 27.7424,9.00585 L18.99415,0.2576 C18.83665,0.09835 18.61615,0.00035 18.37465,0.00035 C18.13315,0.00035 17.9144,0.09835 17.7569,0.25585 L2.0069,16.00585 C1.8809,16.13185 1.80915,16.3016 1.77765,16.4836 L1.7619,16.48185 L0.0119,26.98185 L0.02765,26.9836 C0.02065,27.0326 -0.00035,27.0746 -0.00035,27.12535 C-0.00035,27.60835 0.39165,28.00035 0.87465,28.00035 C0.9254,28.00035 0.9674,27.97935 1.0164,27.97235 L1.01815,27.9881 L11.51815,26.2381 L11.5164,26.22235 C11.6984,26.19085 11.86815,26.1191 11.99415,25.9931 L27.74415,10.2431 C27.90165,10.0856 27.99965,9.86685 27.99965,9.62535 L27.99965,9.62535 Z" id="Fill-1" fill="#424242" mask="url(#mask-8)"></path>
                            </g>
                            <path d="M9.3681,22.13085 L5.86985,18.6326 C5.7106,18.47335 5.49185,18.37535 5.25035,18.37535 C4.76735,18.37535 4.37535,18.76735 4.37535,19.25035 C4.37535,19.49185 4.47335,19.7106 4.63085,19.8681 L8.13085,23.3681 C8.2901,23.52735 8.50885,23.62535 8.75035,23.62535 C9.23335,23.62535 9.62535,23.23335 9.62535,22.75035 C9.62535,22.50885 9.52735,22.2901 9.3681,22.13085" id="Fill-4" fill="#424242"></path>
                        </g>
                    </g>
                    <g id="Icon-Edit" opacity="0.83" transform="translate(698.187717, 55.282989) rotate(-301.000000) translate(-698.187717, -55.282989) translate(684.687717, 41.782989)">
                        <rect id="16X16" x="0" y="0" width="27" height="27"></rect>
                        <g id="Shape-Edit">
                            <g id="Group-3">
                                <mask id="mask-10" fill="white">
                                    <use xlink:href="#path-9"></use>
                                </mask>
                                <g id="Clip-2"></g>
                                <path d="M10.5634125,23.681025 L1.8694125,25.1305875 L3.318975,16.4365875 L17.7184125,2.03715 L24.96285,9.2815875 L10.5634125,23.681025 Z M26.9996625,9.2815875 C26.9996625,9.0487125 26.9051625,8.8360875 26.7516,8.6842125 L18.3157875,0.2484 C18.1639125,0.0948375 17.9512875,0.0003375 17.7184125,0.0003375 C17.4855375,0.0003375 17.2746,0.0948375 17.122725,0.2467125 L1.935225,15.4342125 C1.813725,15.5557125 1.7445375,15.7194 1.7141625,15.8949 L1.698975,15.8932125 L0.011475,26.0182125 L0.0266625,26.0199 C0.0199125,26.06715 -0.0003375,26.10765 -0.0003375,26.1565875 C-0.0003375,26.6223375 0.3776625,27.0003375 0.8434125,27.0003375 C0.89235,27.0003375 0.93285,26.9800875 0.9801,26.9733375 L0.9817875,26.988525 L11.1067875,25.301025 L11.1051,25.2858375 C11.2806,25.2554625 11.4442875,25.186275 11.5657875,25.064775 L26.7532875,9.877275 C26.9051625,9.7254 26.9996625,9.5144625 26.9996625,9.2815875 L26.9996625,9.2815875 Z" id="Fill-1" fill="#424242" mask="url(#mask-10)"></path>
                            </g>
                            <path d="M9.033525,21.3404625 L5.6602125,17.96715 C5.50665,17.8135875 5.2957125,17.7190875 5.0628375,17.7190875 C4.5970875,17.7190875 4.2190875,18.0970875 4.2190875,18.5628375 C4.2190875,18.7957125 4.3135875,19.00665 4.4654625,19.158525 L7.8404625,22.533525 C7.994025,22.6870875 8.2049625,22.7815875 8.4378375,22.7815875 C8.9035875,22.7815875 9.2815875,22.4035875 9.2815875,21.9378375 C9.2815875,21.7049625 9.1870875,21.494025 9.033525,21.3404625" id="Fill-4" fill="#424242"></path>
                        </g>
                    </g>
                    <g id="Icon-Edit" opacity="0.96" transform="translate(300.040520, 39.710805) rotate(-47.000000) translate(-300.040520, -39.710805) translate(285.540520, 25.210805)">
                        <rect id="16X16" x="0" y="0" width="29" height="29"></rect>
                        <g id="Shape-Edit">
                            <g id="Group-3">
                                <mask id="mask-12" fill="white">
                                    <use xlink:href="#path-11"></use>
                                </mask>
                                <g id="Clip-2"></g>
                                <path d="M11.3458875,25.435175 L2.0078875,26.9921125 L3.564825,17.6541125 L19.0308875,2.18805 L26.81195,9.9691125 L11.3458875,25.435175 Z M28.9996375,9.9691125 C28.9996375,9.7189875 28.8981375,9.4906125 28.7332,9.3274875 L19.6725125,0.2668 C19.5093875,0.1018625 19.2810125,0.0003625 19.0308875,0.0003625 C18.7807625,0.0003625 18.5542,0.1018625 18.391075,0.2649875 L2.078575,16.5774875 C1.948075,16.7079875 1.8737625,16.8838 1.8411375,17.0723 L1.824825,17.0704875 L0.012325,27.9454875 L0.0286375,27.9473 C0.0213875,27.99805 -0.0003625,28.04155 -0.0003625,28.0941125 C-0.0003625,28.5943625 0.4056375,29.0003625 0.9058875,29.0003625 C0.95845,29.0003625 1.00195,28.9786125 1.0527,28.9713625 L1.0545125,28.987675 L11.9295125,27.175175 L11.9277,27.1588625 C12.1162,27.1262375 12.2920125,27.051925 12.4225125,26.921425 L28.7350125,10.608925 C28.8981375,10.4458 28.9996375,10.2192375 28.9996375,9.9691125 L28.9996375,9.9691125 Z" id="Fill-1" fill="#424242" mask="url(#mask-12)"></path>
                            </g>
                            <path d="M9.702675,22.9212375 L6.0794875,19.29805 C5.91455,19.1331125 5.6879875,19.0316125 5.4378625,19.0316125 C4.9376125,19.0316125 4.5316125,19.4376125 4.5316125,19.9378625 C4.5316125,20.1879875 4.6331125,20.41455 4.7962375,20.577675 L8.4212375,24.202675 C8.586175,24.3676125 8.8127375,24.4691125 9.0628625,24.4691125 C9.5631125,24.4691125 9.9691125,24.0631125 9.9691125,23.5628625 C9.9691125,23.3127375 9.8676125,23.086175 9.702675,22.9212375" id="Fill-4" fill="#424242"></path>
                        </g>
                    </g>
                </g>
                <g id="Group" transform="translate(22.000000, 0.000000)">
                    <g id="Icon-Clock" opacity="0.7" transform="translate(1072.845656, 410.422132) rotate(-66.000000) translate(-1072.845656, -410.422132) translate(1057.345656, 394.922132)">
                        <rect id="16X16" x="0" y="0" width="31" height="31"></rect>
                        <g id="Shape-Clock" fill="#424242">
                            <path d="M15.5,29.0625 C8.02125,29.0625 1.9375,22.9768125 1.9375,15.5 C1.9375,8.02125 8.02125,1.9375 15.5,1.9375 C22.9768125,1.9375 29.0625,8.02125 29.0625,15.5 C29.0625,22.9768125 22.9768125,29.0625 15.5,29.0625 M15.5,0 C6.9536875,0 0,6.9536875 0,15.5 C0,24.0463125 6.9536875,31 15.5,31 C24.0463125,31 31,24.0463125 31,15.5 C31,6.9536875 24.0463125,0 15.5,0" id="Fill-1"></path>
                            <path d="M21.028075,19.6582625 L16.4691375,15.099325 L16.4691375,6.7816375 C16.4691375,6.2468875 16.0351375,5.8128875 15.5003875,5.8128875 C14.9656375,5.8128875 14.5316375,6.2468875 14.5316375,6.7816375 L14.5316375,15.5003875 C14.5316375,15.7677625 14.6401375,16.00995 14.8145125,16.184325 L19.6582625,21.028075 C19.834575,21.2043875 20.0767625,21.3128875 20.3441375,21.3128875 C20.8788875,21.3128875 21.3128875,20.8788875 21.3128875,20.3441375 C21.3128875,20.0767625 21.2043875,19.834575 21.028075,19.6582625" id="Fill-3"></path>
                        </g>
                    </g>
                    <g id="Icon-Clock" opacity="0.86" transform="translate(1376.862246, 20.563276) rotate(-19.000000) translate(-1376.862246, -20.563276) translate(1361.362246, 5.063276)">
                        <rect id="16X16" x="0" y="0" width="31" height="31"></rect>
                        <g id="Shape-Clock" fill="#424242">
                            <path d="M15.5,29.0625 C8.02125,29.0625 1.9375,22.9768125 1.9375,15.5 C1.9375,8.02125 8.02125,1.9375 15.5,1.9375 C22.9768125,1.9375 29.0625,8.02125 29.0625,15.5 C29.0625,22.9768125 22.9768125,29.0625 15.5,29.0625 M15.5,0 C6.9536875,0 0,6.9536875 0,15.5 C0,24.0463125 6.9536875,31 15.5,31 C24.0463125,31 31,24.0463125 31,15.5 C31,6.9536875 24.0463125,0 15.5,0" id="Fill-1"></path>
                            <path d="M21.028075,19.6582625 L16.4691375,15.099325 L16.4691375,6.7816375 C16.4691375,6.2468875 16.0351375,5.8128875 15.5003875,5.8128875 C14.9656375,5.8128875 14.5316375,6.2468875 14.5316375,6.7816375 L14.5316375,15.5003875 C14.5316375,15.7677625 14.6401375,16.00995 14.8145125,16.184325 L19.6582625,21.028075 C19.834575,21.2043875 20.0767625,21.3128875 20.3441375,21.3128875 C20.8788875,21.3128875 21.3128875,20.8788875 21.3128875,20.3441375 C21.3128875,20.0767625 21.2043875,19.834575 21.028075,19.6582625" id="Fill-3"></path>
                        </g>
                    </g>
                    <g id="Icon-Clock" transform="translate(715.188106, 518.745899) rotate(-313.000000) translate(-715.188106, -518.745899) translate(699.188106, 502.745899)">
                        <rect id="16X16" x="0" y="0" width="32" height="32"></rect>
                        <g id="Shape-Clock" fill="#424242">
                            <path d="M16,30 C8.28,30 2,23.718 2,16 C2,8.28 8.28,2 16,2 C23.718,2 30,8.28 30,16 C30,23.718 23.718,30 16,30 M16,0 C7.178,0 0,7.178 0,16 C0,24.822 7.178,32 16,32 C24.822,32 32,24.822 32,16 C32,7.178 24.822,0 16,0" id="Fill-1"></path>
                            <path d="M21.7064,20.2924 L17.0004,15.5864 L17.0004,7.0004 C17.0004,6.4484 16.5524,6.0004 16.0004,6.0004 C15.4484,6.0004 15.0004,6.4484 15.0004,7.0004 L15.0004,16.0004 C15.0004,16.2764 15.1124,16.5264 15.2924,16.7064 L20.2924,21.7064 C20.4744,21.8884 20.7244,22.0004 21.0004,22.0004 C21.5524,22.0004 22.0004,21.5524 22.0004,21.0004 C22.0004,20.7244 21.8884,20.4744 21.7064,20.2924" id="Fill-3"></path>
                        </g>
                    </g>
                    <g id="Icon-Clock" opacity="0.72" transform="translate(967.507771, 267.287660) rotate(-111.000000) translate(-967.507771, -267.287660) translate(954.007771, 253.787660)">
                        <rect id="16X16" x="0" y="0" width="27" height="27"></rect>
                        <g id="Shape-Clock" fill="#424242">
                            <path d="M13.5,25.3125 C6.98625,25.3125 1.6875,20.0120625 1.6875,13.5 C1.6875,6.98625 6.98625,1.6875 13.5,1.6875 C20.0120625,1.6875 25.3125,6.98625 25.3125,13.5 C25.3125,20.0120625 20.0120625,25.3125 13.5,25.3125 M13.5,0 C6.0564375,0 0,6.0564375 0,13.5 C0,20.9435625 6.0564375,27 13.5,27 C20.9435625,27 27,20.9435625 27,13.5 C27,6.0564375 20.9435625,0 13.5,0" id="Fill-1"></path>
                            <path d="M18.314775,17.1217125 L14.3440875,13.151025 L14.3440875,5.9065875 C14.3440875,5.4408375 13.9660875,5.0628375 13.5003375,5.0628375 C13.0345875,5.0628375 12.6565875,5.4408375 12.6565875,5.9065875 L12.6565875,13.5003375 C12.6565875,13.7332125 12.7510875,13.94415 12.9029625,14.096025 L17.1217125,18.314775 C17.275275,18.4683375 17.4862125,18.5628375 17.7190875,18.5628375 C18.1848375,18.5628375 18.5628375,18.1848375 18.5628375,17.7190875 C18.5628375,17.4862125 18.4683375,17.275275 18.314775,17.1217125" id="Fill-3"></path>
                        </g>
                    </g>
                    <g id="Icon-Clock" opacity="0.9" transform="translate(607.078779, 213.668801) rotate(-265.000000) translate(-607.078779, -213.668801) translate(593.078779, 199.668801)">
                        <rect id="16X16" x="0" y="0" width="28" height="28"></rect>
                        <g id="Shape-Clock" fill="#424242">
                            <path d="M14,26.25 C7.245,26.25 1.75,20.75325 1.75,14 C1.75,7.245 7.245,1.75 14,1.75 C20.75325,1.75 26.25,7.245 26.25,14 C26.25,20.75325 20.75325,26.25 14,26.25 M14,0 C6.28075,0 0,6.28075 0,14 C0,21.71925 6.28075,28 14,28 C21.71925,28 28,21.71925 28,14 C28,6.28075 21.71925,0 14,0" id="Fill-1"></path>
                            <path d="M18.9931,17.75585 L14.87535,13.6381 L14.87535,6.12535 C14.87535,5.64235 14.48335,5.25035 14.00035,5.25035 C13.51735,5.25035 13.12535,5.64235 13.12535,6.12535 L13.12535,14.00035 C13.12535,14.24185 13.22335,14.4606 13.38085,14.6181 L17.75585,18.9931 C17.9151,19.15235 18.13385,19.25035 18.37535,19.25035 C18.85835,19.25035 19.25035,18.85835 19.25035,18.37535 C19.25035,18.13385 19.15235,17.9151 18.9931,17.75585" id="Fill-3"></path>
                        </g>
                    </g>
                    <g id="Icon-Clock" opacity="0.82" transform="translate(600.906731, 42.005684) rotate(-84.000000) translate(-600.906731, -42.005684) translate(583.906731, 25.005684)">
                        <rect id="16X16" x="0" y="0" width="34" height="34"></rect>
                        <g id="Shape-Clock" fill="#424242">
                            <path d="M17,31.875 C8.7975,31.875 2.125,25.200375 2.125,17 C2.125,8.7975 8.7975,2.125 17,2.125 C25.200375,2.125 31.875,8.7975 31.875,17 C31.875,25.200375 25.200375,31.875 17,31.875 M17,0 C7.626625,0 0,7.626625 0,17 C0,26.373375 7.626625,34 17,34 C26.373375,34 34,26.373375 34,17 C34,7.626625 26.373375,0 17,0" id="Fill-1"></path>
                            <path d="M23.06305,21.560675 L18.062925,16.56055 L18.062925,7.437925 C18.062925,6.851425 17.586925,6.375425 17.000425,6.375425 C16.413925,6.375425 15.937925,6.851425 15.937925,7.437925 L15.937925,17.000425 C15.937925,17.293675 16.056925,17.5593 16.248175,17.75055 L21.560675,23.06305 C21.75405,23.256425 22.019675,23.375425 22.312925,23.375425 C22.899425,23.375425 23.375425,22.899425 23.375425,22.312925 C23.375425,22.019675 23.256425,21.75405 23.06305,21.560675" id="Fill-3"></path>
                        </g>
                    </g>
                    <g id="Icon-Clock" opacity="0.86" transform="translate(214.319408, 514.869981) rotate(-359.000000) translate(-214.319408, -514.869981) translate(200.819408, 501.369981)">
                        <rect id="16X16" x="0" y="0" width="27" height="27"></rect>
                        <g id="Shape-Clock" fill="#424242">
                            <path d="M13.5,25.3125 C6.98625,25.3125 1.6875,20.0120625 1.6875,13.5 C1.6875,6.98625 6.98625,1.6875 13.5,1.6875 C20.0120625,1.6875 25.3125,6.98625 25.3125,13.5 C25.3125,20.0120625 20.0120625,25.3125 13.5,25.3125 M13.5,0 C6.0564375,0 0,6.0564375 0,13.5 C0,20.9435625 6.0564375,27 13.5,27 C20.9435625,27 27,20.9435625 27,13.5 C27,6.0564375 20.9435625,0 13.5,0" id="Fill-1"></path>
                            <path d="M18.314775,17.1217125 L14.3440875,13.151025 L14.3440875,5.9065875 C14.3440875,5.4408375 13.9660875,5.0628375 13.5003375,5.0628375 C13.0345875,5.0628375 12.6565875,5.4408375 12.6565875,5.9065875 L12.6565875,13.5003375 C12.6565875,13.7332125 12.7510875,13.94415 12.9029625,14.096025 L17.1217125,18.314775 C17.275275,18.4683375 17.4862125,18.5628375 17.7190875,18.5628375 C18.1848375,18.5628375 18.5628375,18.1848375 18.5628375,17.7190875 C18.5628375,17.4862125 18.4683375,17.275275 18.314775,17.1217125" id="Fill-3"></path>
                        </g>
                    </g>
                    <g id="Icon-Clock" opacity="0.7" transform="translate(161.100451, 24.490726) rotate(-15.000000) translate(-161.100451, -24.490726) translate(147.600451, 10.990726)">
                        <rect id="16X16" x="0" y="0" width="27" height="27"></rect>
                        <g id="Shape-Clock" fill="#424242">
                            <path d="M13.5,25.3125 C6.98625,25.3125 1.6875,20.0120625 1.6875,13.5 C1.6875,6.98625 6.98625,1.6875 13.5,1.6875 C20.0120625,1.6875 25.3125,6.98625 25.3125,13.5 C25.3125,20.0120625 20.0120625,25.3125 13.5,25.3125 M13.5,0 C6.0564375,0 0,6.0564375 0,13.5 C0,20.9435625 6.0564375,27 13.5,27 C20.9435625,27 27,20.9435625 27,13.5 C27,6.0564375 20.9435625,0 13.5,0" id="Fill-1"></path>
                            <path d="M18.314775,17.1217125 L14.3440875,13.151025 L14.3440875,5.9065875 C14.3440875,5.4408375 13.9660875,5.0628375 13.5003375,5.0628375 C13.0345875,5.0628375 12.6565875,5.4408375 12.6565875,5.9065875 L12.6565875,13.5003375 C12.6565875,13.7332125 12.7510875,13.94415 12.9029625,14.096025 L17.1217125,18.314775 C17.275275,18.4683375 17.4862125,18.5628375 17.7190875,18.5628375 C18.1848375,18.5628375 18.5628375,18.1848375 18.5628375,17.7190875 C18.5628375,17.4862125 18.4683375,17.275275 18.314775,17.1217125" id="Fill-3"></path>
                        </g>
                    </g>
                    <g id="Icon-Calendar" opacity="0.9" transform="translate(1176.756369, 257.865339) rotate(-285.000000) translate(-1176.756369, -257.865339) translate(1162.256369, 243.365339)">
                        <rect id="16X16" x="0" y="0" width="29" height="29"></rect>
                        <g id="Shape-Calendar" fill="#424242">
                            <path d="M26.28125,27.1875 L2.71875,27.1875 C2.2185,27.1875 1.8125,26.7506875 1.8125,26.2141875 L1.8125,10.875 L27.1875,10.875 L27.1875,26.2141875 C27.1875,26.7506875 26.7796875,27.1875 26.28125,27.1875 M2.71875,4.4968125 L6.34375,4.4968125 L6.34375,6.34375 C6.34375,6.844 6.74975,7.25 7.25,7.25 C7.75025,7.25 8.15625,6.844 8.15625,6.34375 L8.15625,4.53125 L20.919875,4.53125 L20.919875,6.340125 L20.919875,6.34375 C20.919875,6.844 21.325875,7.25 21.826125,7.25 C22.326375,7.25 22.732375,6.844 22.732375,6.34375 L22.732375,6.34375 L22.732375,4.4968125 L26.28125,4.4968125 C26.7796875,4.4968125 27.1875,4.933625 27.1875,5.4719375 L27.1875,9.0625 L1.8125,9.0625 L1.8125,5.4719375 C1.8125,4.933625 2.2185,4.4968125 2.71875,4.4968125 M26.28125,2.6843125 L22.732375,2.6843125 L22.732375,0.90625 L22.732375,0.90625 C22.732375,0.406 22.326375,0 21.826125,0 C21.325875,0 20.919875,0.406 20.919875,0.90625 L20.919875,0.909875 L20.919875,2.71875 L8.15625,2.71875 L8.15625,0.90625 C8.15625,0.406 7.75025,0 7.25,0 C6.74975,0 6.34375,0.406 6.34375,0.90625 L6.34375,2.6843125 L2.71875,2.6843125 C1.2198125,2.6843125 0,3.9349375 0,5.4719375 L0,26.2141875 C0,27.7511875 1.2198125,29 2.71875,29 L26.28125,29 C27.7801875,29 29,27.7511875 29,26.2141875 L29,5.4719375 C29,3.9349375 27.7801875,2.6843125 26.28125,2.6843125" id="Page-1"></path>
                        </g>
                    </g>
                    <g id="Icon-Calendar" opacity="0.83" transform="translate(940.807580, 104.090762) rotate(-195.000000) translate(-940.807580, -104.090762) translate(925.307580, 88.590762)">
                        <rect id="16X16" x="0" y="0" width="31" height="31"></rect>
                        <g id="Shape-Calendar" fill="#424242">
                            <path d="M28.09375,29.0625 L2.90625,29.0625 C2.3715,29.0625 1.9375,28.5955625 1.9375,28.0220625 L1.9375,11.625 L29.0625,11.625 L29.0625,28.0220625 C29.0625,28.5955625 28.6265625,29.0625 28.09375,29.0625 M2.90625,4.8069375 L6.78125,4.8069375 L6.78125,6.78125 C6.78125,7.316 7.21525,7.75 7.75,7.75 C8.28475,7.75 8.71875,7.316 8.71875,6.78125 L8.71875,4.84375 L22.362625,4.84375 L22.362625,6.777375 L22.362625,6.78125 C22.362625,7.316 22.796625,7.75 23.331375,7.75 C23.866125,7.75 24.300125,7.316 24.300125,6.78125 L24.300125,6.78125 L24.300125,4.8069375 L28.09375,4.8069375 C28.6265625,4.8069375 29.0625,5.273875 29.0625,5.8493125 L29.0625,9.6875 L1.9375,9.6875 L1.9375,5.8493125 C1.9375,5.273875 2.3715,4.8069375 2.90625,4.8069375 M28.09375,2.8694375 L24.300125,2.8694375 L24.300125,0.96875 L24.300125,0.96875 C24.300125,0.434 23.866125,0 23.331375,0 C22.796625,0 22.362625,0.434 22.362625,0.96875 L22.362625,0.972625 L22.362625,2.90625 L8.71875,2.90625 L8.71875,0.96875 C8.71875,0.434 8.28475,0 7.75,0 C7.21525,0 6.78125,0.434 6.78125,0.96875 L6.78125,2.8694375 L2.90625,2.8694375 C1.3039375,2.8694375 0,4.2063125 0,5.8493125 L0,28.0220625 C0,29.6650625 1.3039375,31 2.90625,31 L28.09375,31 C29.6960625,31 31,29.6650625 31,28.0220625 L31,5.8493125 C31,4.2063125 29.6960625,2.8694375 28.09375,2.8694375" id="Page-1"></path>
                        </g>
                    </g>
                    <g id="Icon-Calendar" opacity="0.83" transform="translate(569.354271, 468.955738) rotate(-40.000000) translate(-569.354271, -468.955738) translate(550.854271, 450.455738)">
                        <rect id="16X16" x="0" y="0" width="37" height="37"></rect>
                        <g id="Shape-Calendar" fill="#424242">
                            <path d="M33.53125,34.6875 L3.46875,34.6875 C2.8305,34.6875 2.3125,34.1301875 2.3125,33.4456875 L2.3125,13.875 L34.6875,13.875 L34.6875,33.4456875 C34.6875,34.1301875 34.1671875,34.6875 33.53125,34.6875 M3.46875,5.7373125 L8.09375,5.7373125 L8.09375,8.09375 C8.09375,8.732 8.61175,9.25 9.25,9.25 C9.88825,9.25 10.40625,8.732 10.40625,8.09375 L10.40625,5.78125 L26.690875,5.78125 L26.690875,8.089125 L26.690875,8.09375 C26.690875,8.732 27.208875,9.25 27.847125,9.25 C28.485375,9.25 29.003375,8.732 29.003375,8.09375 L29.003375,8.09375 L29.003375,5.7373125 L33.53125,5.7373125 C34.1671875,5.7373125 34.6875,6.294625 34.6875,6.9814375 L34.6875,11.5625 L2.3125,11.5625 L2.3125,6.9814375 C2.3125,6.294625 2.8305,5.7373125 3.46875,5.7373125 M33.53125,3.4248125 L29.003375,3.4248125 L29.003375,1.15625 L29.003375,1.15625 C29.003375,0.518 28.485375,0 27.847125,0 C27.208875,0 26.690875,0.518 26.690875,1.15625 L26.690875,1.160875 L26.690875,3.46875 L10.40625,3.46875 L10.40625,1.15625 C10.40625,0.518 9.88825,0 9.25,0 C8.61175,0 8.09375,0.518 8.09375,1.15625 L8.09375,3.4248125 L3.46875,3.4248125 C1.5563125,3.4248125 0,5.0204375 0,6.9814375 L0,33.4456875 C0,35.4066875 1.5563125,37 3.46875,37 L33.53125,37 C35.4436875,37 37,35.4066875 37,33.4456875 L37,6.9814375 C37,5.0204375 35.4436875,3.4248125 33.53125,3.4248125" id="Page-1"></path>
                        </g>
                    </g>
                    <g id="Icon-Calendar" opacity="0.87" transform="translate(23.925550, 297.358966) rotate(-76.000000) translate(-23.925550, -297.358966) translate(4.425550, 277.858966)">
                        <rect id="16X16" x="0" y="0" width="39" height="39"></rect>
                        <g id="Shape-Calendar" fill="#424242">
                            <path d="M35.34375,36.5625 L3.65625,36.5625 C2.9835,36.5625 2.4375,35.9750625 2.4375,35.2535625 L2.4375,14.625 L36.5625,14.625 L36.5625,35.2535625 C36.5625,35.9750625 36.0140625,36.5625 35.34375,36.5625 M3.65625,6.0474375 L8.53125,6.0474375 L8.53125,8.53125 C8.53125,9.204 9.07725,9.75 9.75,9.75 C10.42275,9.75 10.96875,9.204 10.96875,8.53125 L10.96875,6.09375 L28.133625,6.09375 L28.133625,8.526375 L28.133625,8.53125 C28.133625,9.204 28.679625,9.75 29.352375,9.75 C30.025125,9.75 30.571125,9.204 30.571125,8.53125 L30.571125,8.53125 L30.571125,6.0474375 L35.34375,6.0474375 C36.0140625,6.0474375 36.5625,6.634875 36.5625,7.3588125 L36.5625,12.1875 L2.4375,12.1875 L2.4375,7.3588125 C2.4375,6.634875 2.9835,6.0474375 3.65625,6.0474375 M35.34375,3.6099375 L30.571125,3.6099375 L30.571125,1.21875 L30.571125,1.21875 C30.571125,0.546 30.025125,0 29.352375,0 C28.679625,0 28.133625,0.546 28.133625,1.21875 L28.133625,1.223625 L28.133625,3.65625 L10.96875,3.65625 L10.96875,1.21875 C10.96875,0.546 10.42275,0 9.75,0 C9.07725,0 8.53125,0.546 8.53125,1.21875 L8.53125,3.6099375 L3.65625,3.6099375 C1.6404375,3.6099375 0,5.2918125 0,7.3588125 L0,35.2535625 C0,37.3205625 1.6404375,39 3.65625,39 L35.34375,39 C37.3595625,39 39,37.3205625 39,35.2535625 L39,7.3588125 C39,5.2918125 37.3595625,3.6099375 35.34375,3.6099375" id="Page-1"></path>
                        </g>
                    </g>
                </g>
                <g id="Group-2" transform="translate(10.000000, 605.000000)">
                    <g id="Icon-Image" opacity="0.91" transform="translate(1347.149443, 126.149443) rotate(-299.000000) translate(-1347.149443, -126.149443) translate(1328.649443, 107.649443)">
                        <rect id="16X16" x="0" y="0" width="37" height="37"></rect>
                        <g id="Shape-Image" transform="translate(0.000000, 4.625000)" fill="#424242">
                            <path d="M33.53125,25.4375 L3.46875,25.4375 C2.8305,25.4375 2.3125,24.9171875 2.3125,24.28125 L2.3125,23.6036875 L10.40625,15.5099375 L17.681375,22.787375 C17.8918125,22.9955 18.180875,23.125 18.5,23.125 C18.611,23.125 18.7104375,23.0903125 18.8121875,23.0625625 L18.8168125,23.07875 L26.5451875,20.872625 L34.6875,23.925125 L34.6875,24.28125 C34.6875,24.9171875 34.1671875,25.4375 33.53125,25.4375 M3.46875,2.3125 L33.53125,2.3125 C34.1671875,2.3125 34.6875,2.8305 34.6875,3.46875 L34.6875,21.4576875 L27.00075,18.574 L26.9984375,18.5809375 C26.87125,18.5346875 26.737125,18.5 26.59375,18.5 C26.48275,18.5 26.3833125,18.5346875 26.2815625,18.5624375 L26.274625,18.54625 L18.837625,20.6714375 L11.224875,13.0586875 C11.0144375,12.84825 10.725375,12.71875 10.40625,12.71875 C10.087125,12.71875 9.7980625,12.84825 9.587625,13.0586875 L2.3125,20.3338125 L2.3125,3.46875 C2.3125,2.8305 2.8305,2.3125 3.46875,2.3125 M33.53125,0 L3.46875,0 C1.5563125,0 0,1.5563125 0,3.46875 L0,24.28125 C0,26.1936875 1.5563125,27.75 3.46875,27.75 L33.53125,27.75 C35.4436875,27.75 37,26.1936875 37,24.28125 L37,3.46875 C37,1.5563125 35.4436875,0 33.53125,0" id="Fill-1"></path>
                            <path d="M26.59375,6.9375 C28.5061875,6.9375 30.0625,8.4938125 30.0625,10.40625 C30.0625,12.3186875 28.5061875,13.875 26.59375,13.875 C24.6813125,13.875 23.125,12.3186875 23.125,10.40625 C23.125,8.4938125 24.6813125,6.9375 26.59375,6.9375 M26.59375,16.1875 C29.7826875,16.1875 32.375,13.592875 32.375,10.40625 C32.375,7.219625 29.7826875,4.625 26.59375,4.625 C23.4048125,4.625 20.8125,7.219625 20.8125,10.40625 C20.8125,13.592875 23.4048125,16.1875 26.59375,16.1875" id="Fill-3"></path>
                        </g>
                    </g>
                    <g id="Icon-Image" opacity="0.92" transform="translate(834.174955, 92.174955) rotate(-207.000000) translate(-834.174955, -92.174955) translate(819.174955, 77.174955)">
                        <rect id="16X16" x="0" y="0" width="30" height="30"></rect>
                        <g id="Shape-Image" transform="translate(0.000000, 3.750000)" fill="#424242">
                            <path d="M27.1875,20.625 L2.8125,20.625 C2.295,20.625 1.875,20.203125 1.875,19.6875 L1.875,19.138125 L8.4375,12.575625 L14.33625,18.47625 C14.506875,18.645 14.74125,18.75 15,18.75 C15.09,18.75 15.170625,18.721875 15.253125,18.699375 L15.256875,18.7125 L21.523125,16.92375 L28.125,19.39875 L28.125,19.6875 C28.125,20.203125 27.703125,20.625 27.1875,20.625 M2.8125,1.875 L27.1875,1.875 C27.703125,1.875 28.125,2.295 28.125,2.8125 L28.125,17.398125 L21.8925,15.06 L21.890625,15.065625 C21.7875,15.028125 21.67875,15 21.5625,15 C21.4725,15 21.391875,15.028125 21.309375,15.050625 L21.30375,15.0375 L15.27375,16.760625 L9.10125,10.588125 C8.930625,10.4175 8.69625,10.3125 8.4375,10.3125 C8.17875,10.3125 7.944375,10.4175 7.77375,10.588125 L1.875,16.486875 L1.875,2.8125 C1.875,2.295 2.295,1.875 2.8125,1.875 M27.1875,0 L2.8125,0 C1.261875,0 0,1.261875 0,2.8125 L0,19.6875 C0,21.238125 1.261875,22.5 2.8125,22.5 L27.1875,22.5 C28.738125,22.5 30,21.238125 30,19.6875 L30,2.8125 C30,1.261875 28.738125,0 27.1875,0" id="Fill-1"></path>
                            <path d="M21.5625,5.625 C23.113125,5.625 24.375,6.886875 24.375,8.4375 C24.375,9.988125 23.113125,11.25 21.5625,11.25 C20.011875,11.25 18.75,9.988125 18.75,8.4375 C18.75,6.886875 20.011875,5.625 21.5625,5.625 M21.5625,13.125 C24.148125,13.125 26.25,11.02125 26.25,8.4375 C26.25,5.85375 24.148125,3.75 21.5625,3.75 C18.976875,3.75 16.875,5.85375 16.875,8.4375 C16.875,11.02125 18.976875,13.125 21.5625,13.125" id="Fill-3"></path>
                        </g>
                    </g>
                    <g id="Icon-Image" opacity="0.76" transform="translate(535.282882, 581.282882) rotate(-57.000000) translate(-535.282882, -581.282882) translate(516.282882, 562.282882)">
                        <rect id="16X16" x="0" y="0" width="38" height="38"></rect>
                        <g id="Shape-Image" transform="translate(0.000000, 4.750000)" fill="#424242">
                            <path d="M34.4375,26.125 L3.5625,26.125 C2.907,26.125 2.375,25.590625 2.375,24.9375 L2.375,24.241625 L10.6875,15.929125 L18.15925,23.40325 C18.375375,23.617 18.67225,23.75 19,23.75 C19.114,23.75 19.216125,23.714375 19.320625,23.685875 L19.325375,23.7025 L27.262625,21.43675 L35.625,24.57175 L35.625,24.9375 C35.625,25.590625 35.090625,26.125 34.4375,26.125 M3.5625,2.375 L34.4375,2.375 C35.090625,2.375 35.625,2.907 35.625,3.5625 L35.625,22.037625 L27.7305,19.076 L27.728125,19.083125 C27.5975,19.035625 27.45975,19 27.3125,19 C27.1985,19 27.096375,19.035625 26.991875,19.064125 L26.98475,19.0475 L19.34675,21.230125 L11.52825,13.411625 C11.312125,13.1955 11.01525,13.0625 10.6875,13.0625 C10.35975,13.0625 10.062875,13.1955 9.84675,13.411625 L2.375,20.883375 L2.375,3.5625 C2.375,2.907 2.907,2.375 3.5625,2.375 M34.4375,0 L3.5625,0 C1.598375,0 0,1.598375 0,3.5625 L0,24.9375 C0,26.901625 1.598375,28.5 3.5625,28.5 L34.4375,28.5 C36.401625,28.5 38,26.901625 38,24.9375 L38,3.5625 C38,1.598375 36.401625,0 34.4375,0" id="Fill-1"></path>
                            <path d="M27.3125,7.125 C29.276625,7.125 30.875,8.723375 30.875,10.6875 C30.875,12.651625 29.276625,14.25 27.3125,14.25 C25.348375,14.25 23.75,12.651625 23.75,10.6875 C23.75,8.723375 25.348375,7.125 27.3125,7.125 M27.3125,16.625 C30.587625,16.625 33.25,13.96025 33.25,10.6875 C33.25,7.41475 30.587625,4.75 27.3125,4.75 C24.037375,4.75 21.375,7.41475 21.375,10.6875 C21.375,13.96025 24.037375,16.625 27.3125,16.625" id="Fill-3"></path>
                        </g>
                    </g>
                    <g id="Icon-Image" opacity="0.98" transform="translate(689.085360, 326.085360) rotate(-294.000000) translate(-689.085360, -326.085360) translate(670.085360, 307.085360)">
                        <rect id="16X16" x="0" y="0" width="38" height="38"></rect>
                        <g id="Shape-Image" transform="translate(0.000000, 4.750000)" fill="#424242">
                            <path d="M34.4375,26.125 L3.5625,26.125 C2.907,26.125 2.375,25.590625 2.375,24.9375 L2.375,24.241625 L10.6875,15.929125 L18.15925,23.40325 C18.375375,23.617 18.67225,23.75 19,23.75 C19.114,23.75 19.216125,23.714375 19.320625,23.685875 L19.325375,23.7025 L27.262625,21.43675 L35.625,24.57175 L35.625,24.9375 C35.625,25.590625 35.090625,26.125 34.4375,26.125 M3.5625,2.375 L34.4375,2.375 C35.090625,2.375 35.625,2.907 35.625,3.5625 L35.625,22.037625 L27.7305,19.076 L27.728125,19.083125 C27.5975,19.035625 27.45975,19 27.3125,19 C27.1985,19 27.096375,19.035625 26.991875,19.064125 L26.98475,19.0475 L19.34675,21.230125 L11.52825,13.411625 C11.312125,13.1955 11.01525,13.0625 10.6875,13.0625 C10.35975,13.0625 10.062875,13.1955 9.84675,13.411625 L2.375,20.883375 L2.375,3.5625 C2.375,2.907 2.907,2.375 3.5625,2.375 M34.4375,0 L3.5625,0 C1.598375,0 0,1.598375 0,3.5625 L0,24.9375 C0,26.901625 1.598375,28.5 3.5625,28.5 L34.4375,28.5 C36.401625,28.5 38,26.901625 38,24.9375 L38,3.5625 C38,1.598375 36.401625,0 34.4375,0" id="Fill-1"></path>
                            <path d="M27.3125,7.125 C29.276625,7.125 30.875,8.723375 30.875,10.6875 C30.875,12.651625 29.276625,14.25 27.3125,14.25 C25.348375,14.25 23.75,12.651625 23.75,10.6875 C23.75,8.723375 25.348375,7.125 27.3125,7.125 M27.3125,16.625 C30.587625,16.625 33.25,13.96025 33.25,10.6875 C33.25,7.41475 30.587625,4.75 27.3125,4.75 C24.037375,4.75 21.375,7.41475 21.375,10.6875 C21.375,13.96025 24.037375,16.625 27.3125,16.625" id="Fill-3"></path>
                        </g>
                    </g>
                    <g id="Icon-Share" opacity="0.89" transform="translate(1134.037969, 331.037969) rotate(-44.000000) translate(-1134.037969, -331.037969) translate(1117.037969, 314.037969)">
                        <rect id="16X16" x="0" y="0" width="34" height="34"></rect>
                        <g id="Shape-Share" fill="#424242">
                            <path d="M32.9375,15.9375 C32.351,15.9375 31.875,16.4135 31.875,17 L31.875,30.8125 C31.875,31.396875 31.396875,31.875 30.8125,31.875 L3.1875,31.875 C2.601,31.875 2.125,31.396875 2.125,30.8125 L2.125,17 C2.125,16.4135 1.649,15.9375 1.0625,15.9375 C0.476,15.9375 0,16.4135 0,17 L0,30.8125 C0,32.569875 1.430125,34 3.1875,34 L30.8125,34 C32.569875,34 34,32.569875 34,30.8125 L34,17 C34,16.4135 33.524,15.9375 32.9375,15.9375" id="Fill-1"></path>
                            <path d="M9.5625,10.625 C9.88125,10.625 10.159625,10.47625 10.353,10.25525 L10.3615,10.261625 L15.9375,3.890875 L15.9375,22.3125 C15.9375,22.899 16.4135,23.375 17,23.375 C17.5865,23.375 18.0625,22.899 18.0625,22.3125 L18.0625,3.890875 L23.6385,10.261625 L23.647,10.25525 C23.840375,10.478375 24.11875,10.625 24.4375,10.625 C25.024,10.625 25.5,10.149 25.5,9.5625 C25.5,9.29475 25.391625,9.05675 25.228,8.86975 L25.2365,8.863375 L17.799,0.363375 L17.7905,0.36975 C17.597125,0.14875 17.31875,0 17,0 C16.68125,0 16.402875,0.14875 16.2095,0.36975 L16.201,0.363375 L8.7635,8.863375 L8.772,8.86975 C8.608375,9.05675 8.5,9.29475 8.5,9.5625 C8.5,10.149 8.976,10.625 9.5625,10.625" id="Fill-3"></path>
                        </g>
                    </g>
                    <g id="Icon-Share" opacity="0.75" transform="translate(1069.405642, 507.405642) rotate(-336.000000) translate(-1069.405642, -507.405642) translate(1049.405642, 487.405642)">
                        <rect id="16X16" x="0" y="0" width="40" height="40"></rect>
                        <g id="Shape-Share" fill="#424242">
                            <path d="M38.75,18.75 C38.06,18.75 37.5,19.31 37.5,20 L37.5,36.25 C37.5,36.9375 36.9375,37.5 36.25,37.5 L3.75,37.5 C3.06,37.5 2.5,36.9375 2.5,36.25 L2.5,20 C2.5,19.31 1.94,18.75 1.25,18.75 C0.56,18.75 0,19.31 0,20 L0,36.25 C0,38.3175 1.6825,40 3.75,40 L36.25,40 C38.3175,40 40,38.3175 40,36.25 L40,20 C40,19.31 39.44,18.75 38.75,18.75" id="Fill-1"></path>
                            <path d="M11.25,12.5 C11.625,12.5 11.9525,12.325 12.18,12.065 L12.19,12.0725 L18.75,4.5775 L18.75,26.25 C18.75,26.94 19.31,27.5 20,27.5 C20.69,27.5 21.25,26.94 21.25,26.25 L21.25,4.5775 L27.81,12.0725 L27.82,12.065 C28.0475,12.3275 28.375,12.5 28.75,12.5 C29.44,12.5 30,11.94 30,11.25 C30,10.935 29.8725,10.655 29.68,10.435 L29.69,10.4275 L20.94,0.4275 L20.93,0.435 C20.7025,0.175 20.375,0 20,0 C19.625,0 19.2975,0.175 19.07,0.435 L19.06,0.4275 L10.31,10.4275 L10.32,10.435 C10.1275,10.655 10,10.935 10,11.25 C10,11.94 10.56,12.5 11.25,12.5" id="Fill-3"></path>
                        </g>
                    </g>
                    <g id="Icon-Share" opacity="0.89" transform="translate(23.080058, 547.080058) rotate(-6.000000) translate(-23.080058, -547.080058) translate(2.080058, 526.080058)">
                        <rect id="16X16" x="0" y="0" width="42" height="42"></rect>
                        <g id="Shape-Share" fill="#424242">
                            <path d="M40.6875,19.6875 C39.963,19.6875 39.375,20.2755 39.375,21 L39.375,38.0625 C39.375,38.784375 38.784375,39.375 38.0625,39.375 L3.9375,39.375 C3.213,39.375 2.625,38.784375 2.625,38.0625 L2.625,21 C2.625,20.2755 2.037,19.6875 1.3125,19.6875 C0.588,19.6875 0,20.2755 0,21 L0,38.0625 C0,40.233375 1.766625,42 3.9375,42 L38.0625,42 C40.233375,42 42,40.233375 42,38.0625 L42,21 C42,20.2755 41.412,19.6875 40.6875,19.6875" id="Fill-1"></path>
                            <path d="M11.8125,13.125 C12.20625,13.125 12.550125,12.94125 12.789,12.66825 L12.7995,12.676125 L19.6875,4.806375 L19.6875,27.5625 C19.6875,28.287 20.2755,28.875 21,28.875 C21.7245,28.875 22.3125,28.287 22.3125,27.5625 L22.3125,4.806375 L29.2005,12.676125 L29.211,12.66825 C29.449875,12.943875 29.79375,13.125 30.1875,13.125 C30.912,13.125 31.5,12.537 31.5,11.8125 C31.5,11.48175 31.366125,11.18775 31.164,10.95675 L31.1745,10.948875 L21.987,0.448875 L21.9765,0.45675 C21.737625,0.18375 21.39375,0 21,0 C20.60625,0 20.262375,0.18375 20.0235,0.45675 L20.013,0.448875 L10.8255,10.948875 L10.836,10.95675 C10.633875,11.18775 10.5,11.48175 10.5,11.8125 C10.5,12.537 11.088,13.125 11.8125,13.125" id="Fill-3"></path>
                        </g>
                    </g>
                    <g id="Icon-Share" opacity="0.77" transform="translate(70.334524, 23.334524) rotate(-315.000000) translate(-70.334524, -23.334524) translate(53.834524, 6.834524)">
                        <rect id="16X16" x="0" y="0" width="33" height="33"></rect>
                        <g id="Shape-Share" fill="#424242">
                            <path d="M31.96875,15.46875 C31.3995,15.46875 30.9375,15.93075 30.9375,16.5 L30.9375,29.90625 C30.9375,30.4734375 30.4734375,30.9375 29.90625,30.9375 L3.09375,30.9375 C2.5245,30.9375 2.0625,30.4734375 2.0625,29.90625 L2.0625,16.5 C2.0625,15.93075 1.6005,15.46875 1.03125,15.46875 C0.462,15.46875 0,15.93075 0,16.5 L0,29.90625 C0,31.6119375 1.3880625,33 3.09375,33 L29.90625,33 C31.6119375,33 33,31.6119375 33,29.90625 L33,16.5 C33,15.93075 32.538,15.46875 31.96875,15.46875" id="Fill-1"></path>
                            <path d="M9.28125,10.3125 C9.590625,10.3125 9.8608125,10.168125 10.0485,9.953625 L10.05675,9.9598125 L15.46875,3.7764375 L15.46875,21.65625 C15.46875,22.2255 15.93075,22.6875 16.5,22.6875 C17.06925,22.6875 17.53125,22.2255 17.53125,21.65625 L17.53125,3.7764375 L22.94325,9.9598125 L22.9515,9.953625 C23.1391875,10.1701875 23.409375,10.3125 23.71875,10.3125 C24.288,10.3125 24.75,9.8505 24.75,9.28125 C24.75,9.021375 24.6448125,8.790375 24.486,8.608875 L24.49425,8.6026875 L17.2755,0.3526875 L17.26725,0.358875 C17.0795625,0.144375 16.809375,0 16.5,0 C16.190625,0 15.9204375,0.144375 15.73275,0.358875 L15.7245,0.3526875 L8.50575,8.6026875 L8.514,8.608875 C8.3551875,8.790375 8.25,9.021375 8.25,9.28125 C8.25,9.8505 8.712,10.3125 9.28125,10.3125" id="Fill-3"></path>
                        </g>
                    </g>
                    <g id="Icon-Save" opacity="0.88" transform="translate(1321.906803, 562.906803) rotate(-190.000000) translate(-1321.906803, -562.906803) translate(1300.406803, 541.406803)">
                        <rect id="16X16" x="0" y="0" width="42.5260876" height="42.5260876"></rect>
                        <g id="Shape-Save" fill="#424242">
                            <path d="M39.8682072,38.4406596 C39.8682072,39.2273922 39.2701841,39.8679414 38.5392669,39.8679414 L3.98682072,39.8679414 C3.25324571,39.8679414 2.65788048,39.2273922 2.65788048,38.4406596 L2.65788048,4.08755439 C2.65788048,3.29816389 3.25324571,2.65761469 3.98682072,2.65761469 L9.30258167,2.65761469 L9.30258167,14.6180768 C9.30258167,15.3516519 9.8979469,15.9470171 10.6315219,15.9470171 L31.8945657,15.9470171 C32.6281407,15.9470171 33.223506,15.3516519 33.223506,14.6180768 L33.223506,2.65761469 L38.5392669,2.65761469 C39.2701841,2.65761469 39.8682072,3.29816389 39.8682072,4.08755439 L39.8682072,38.4406596 Z M11.9604622,13.2891366 L30.5656255,13.2891366 L30.5656255,2.65761469 L11.9604622,2.65761469 L11.9604622,13.2891366 Z M38.5392669,-0.000265788048 L3.98682072,-0.000265788048 C1.78875356,-0.000265788048 0,1.83367174 0,4.08755439 L0,38.4406596 C0,40.6945422 1.78875356,42.5258219 3.98682072,42.5258219 L38.5392669,42.5258219 C40.7373341,42.5258219 42.5260876,40.6945422 42.5260876,38.4406596 L42.5260876,4.08755439 C42.5260876,1.83367174 40.7373341,-0.000265788048 38.5392669,-0.000265788048 L38.5392669,-0.000265788048 Z" id="Fill-1"></path>
                            <path d="M21.2630438,31.8945657 C18.3314017,31.8945657 15.9472829,29.5104469 15.9472829,26.5788048 C15.9472829,23.6471626 18.3314017,21.2630438 21.2630438,21.2630438 C24.194686,21.2630438 26.5788048,23.6471626 26.5788048,26.5788048 C26.5788048,29.5104469 24.194686,31.8945657 21.2630438,31.8945657 M21.2630438,18.6051633 C16.8669095,18.6051633 13.2894024,22.1826705 13.2894024,26.5788048 C13.2894024,30.9749391 16.8669095,34.5524462 21.2630438,34.5524462 C25.6591781,34.5524462 29.2366853,30.9749391 29.2366853,26.5788048 C29.2366853,22.1826705 25.6591781,18.6051633 21.2630438,18.6051633" id="Fill-4"></path>
                        </g>
                    </g>
                    <g id="Icon-Save" transform="translate(986.152840, 305.152840) rotate(-236.000000) translate(-986.152840, -305.152840) translate(965.152840, 284.152840)">
                        <rect id="16X16" x="0" y="0" width="41.5371089" height="41.5371089"></rect>
                        <g id="Shape-Save" fill="#424242">
                            <path d="M38.9410396,37.5466907 C38.9410396,38.3151273 38.356924,38.94078 37.6430049,38.94078 L3.89410396,38.94078 C3.17758883,38.94078 2.5960693,38.3151273 2.5960693,37.5466907 L2.5960693,3.99249498 C2.5960693,3.2214624 3.17758883,2.5958097 3.89410396,2.5958097 L9.08624256,2.5958097 L9.08624256,14.2781216 C9.08624256,14.9946367 9.66776209,15.5761562 10.3842772,15.5761562 L31.1528316,15.5761562 C31.8693468,15.5761562 32.4508663,14.9946367 32.4508663,14.2781216 L32.4508663,2.5958097 L37.6430049,2.5958097 C38.356924,2.5958097 38.9410396,3.2214624 38.9410396,3.99249498 L38.9410396,37.5466907 Z M11.6823119,12.9800869 L29.854797,12.9800869 L29.854797,2.5958097 L11.6823119,2.5958097 L11.6823119,12.9800869 Z M37.6430049,-0.00025960693 L3.89410396,-0.00025960693 C1.74715464,-0.00025960693 0,1.79102821 0,3.99249498 L0,37.5466907 C0,39.7481575 1.74715464,41.5368493 3.89410396,41.5368493 L37.6430049,41.5368493 C39.7899542,41.5368493 41.5371089,39.7481575 41.5371089,37.5466907 L41.5371089,3.99249498 C41.5371089,1.79102821 39.7899542,-0.00025960693 37.6430049,-0.00025960693 L37.6430049,-0.00025960693 Z" id="Fill-1"></path>
                            <path d="M20.7685544,31.1528316 C17.90509,31.1528316 15.5764158,28.8241575 15.5764158,25.960693 C15.5764158,23.0972286 17.90509,20.7685544 20.7685544,20.7685544 C23.6320189,20.7685544 25.960693,23.0972286 25.960693,25.960693 C25.960693,28.8241575 23.6320189,31.1528316 20.7685544,31.1528316 M20.7685544,18.1724851 C16.4746558,18.1724851 12.9803465,21.6667944 12.9803465,25.960693 C12.9803465,30.2545917 16.4746558,33.748901 20.7685544,33.748901 C25.0624531,33.748901 28.5567623,30.2545917 28.5567623,25.960693 C28.5567623,21.6667944 25.0624531,18.1724851 20.7685544,18.1724851" id="Fill-4"></path>
                        </g>
                    </g>
                    <g id="Icon-Save" opacity="0.74" transform="translate(672.866548, 19.866548) rotate(-20.000000) translate(-672.866548, -19.866548) translate(657.366548, 4.366548)">
                        <rect id="16X16" x="0" y="0" width="30.6583423" height="30.6583423"></rect>
                        <g id="Shape-Save" fill="#424242">
                            <path d="M28.7421959,27.7130336 C28.7421959,28.280213 28.3110629,28.7420043 27.7841227,28.7420043 L2.87421959,28.7420043 C2.34536318,28.7420043 1.91614639,28.280213 1.91614639,27.7130336 L1.91614639,2.94684153 C1.91614639,2.37774606 2.34536318,1.91595478 2.87421959,1.91595478 L6.70651237,1.91595478 L6.70651237,10.5386135 C6.70651237,11.0674699 7.13572916,11.4966867 7.66458556,11.4966867 L22.9937567,11.4966867 C23.5226131,11.4966867 23.9518299,11.0674699 23.9518299,10.5386135 L23.9518299,1.91595478 L27.7841227,1.91595478 C28.3110629,1.91595478 28.7421959,2.37774606 28.7421959,2.94684153 L28.7421959,27.7130336 Z M8.62265876,9.58054034 L22.0356835,9.58054034 L22.0356835,1.91595478 L8.62265876,1.91595478 L8.62265876,9.58054034 Z M27.7841227,-0.000191614639 L2.87421959,-0.000191614639 C1.28956652,-0.000191614639 0,1.3219494 0,2.94684153 L0,27.7130336 C0,29.3379258 1.28956652,30.6581506 2.87421959,30.6581506 L27.7841227,30.6581506 C29.3687757,30.6581506 30.6583423,29.3379258 30.6583423,27.7130336 L30.6583423,2.94684153 C30.6583423,1.3219494 29.3687757,-0.000191614639 27.7841227,-0.000191614639 L27.7841227,-0.000191614639 Z" id="Fill-1"></path>
                            <path d="M15.3291711,22.9937567 C13.2156617,22.9937567 11.4968783,21.2749734 11.4968783,19.1614639 C11.4968783,17.0479544 13.2156617,15.3291711 15.3291711,15.3291711 C17.4426806,15.3291711 19.1614639,17.0479544 19.1614639,19.1614639 C19.1614639,21.2749734 17.4426806,22.9937567 15.3291711,22.9937567 M15.3291711,13.4130247 C12.159865,13.4130247 9.58073196,15.9921578 9.58073196,19.1614639 C9.58073196,22.33077 12.159865,24.9099031 15.3291711,24.9099031 C18.4984773,24.9099031 21.0776103,22.33077 21.0776103,19.1614639 C21.0776103,15.9921578 18.4984773,13.4130247 15.3291711,13.4130247" id="Fill-4"></path>
                        </g>
                    </g>
                    <g id="Icon-Save" opacity="0.8" transform="translate(60.444039, 387.444039) rotate(-306.000000) translate(-60.444039, -387.444039) translate(42.944039, 369.944039)">
                        <rect id="16X16" x="0" y="0" width="34.6142574" height="34.6142574"></rect>
                        <g id="Shape-Save" fill="#424242">
                            <path d="M32.4508663,31.2889089 C32.4508663,31.9292727 31.9641033,32.45065 31.3691708,32.45065 L3.24508663,32.45065 C2.64799069,32.45065 2.16339109,31.9292727 2.16339109,31.2889089 L2.16339109,3.32707915 C2.16339109,2.684552 2.64799069,2.16317475 3.24508663,2.16317475 L7.5718688,2.16317475 L7.5718688,11.8984346 C7.5718688,12.4955306 8.05646841,12.9801302 8.65356435,12.9801302 L25.960693,12.9801302 C26.557789,12.9801302 27.0423886,12.4955306 27.0423886,11.8984346 L27.0423886,2.16317475 L31.3691708,2.16317475 C31.9641033,2.16317475 32.4508663,2.684552 32.4508663,3.32707915 L32.4508663,31.2889089 Z M9.73525989,10.8167391 L24.8789975,10.8167391 L24.8789975,2.16317475 L9.73525989,2.16317475 L9.73525989,10.8167391 Z M31.3691708,-0.000216339109 L3.24508663,-0.000216339109 C1.4559622,-0.000216339109 0,1.49252351 0,3.32707915 L0,31.2889089 C0,33.1234646 1.4559622,34.614041 3.24508663,34.614041 L31.3691708,34.614041 C33.1582952,34.614041 34.6142574,33.1234646 34.6142574,31.2889089 L34.6142574,3.32707915 C34.6142574,1.49252351 33.1582952,-0.000216339109 31.3691708,-0.000216339109 L31.3691708,-0.000216339109 Z" id="Fill-1"></path>
                            <path d="M17.3071287,25.960693 C14.9209083,25.960693 12.9803465,24.0201312 12.9803465,21.6339109 C12.9803465,19.2476905 14.9209083,17.3071287 17.3071287,17.3071287 C19.6933491,17.3071287 21.6339109,19.2476905 21.6339109,21.6339109 C21.6339109,24.0201312 19.6933491,25.960693 17.3071287,25.960693 M17.3071287,15.1437376 C13.7288798,15.1437376 10.8169554,18.055662 10.8169554,21.6339109 C10.8169554,25.2121597 13.7288798,28.1240841 17.3071287,28.1240841 C20.8853776,28.1240841 23.797302,25.2121597 23.797302,21.6339109 C23.797302,18.055662 20.8853776,15.1437376 17.3071287,15.1437376" id="Fill-4"></path>
                        </g>
                    </g>
                </g>
            </g>
        </g>
    </g>
</svg>