<svg xmlns="http://www.w3.org/2000/svg" viewBox="0 0 24.58 28.78"><defs><style>.cls-1{fill:#272f49;}</style></defs><title>Asset 6</title><g id="Layer_2" data-name="Layer 2"><g id="alt_menu" data-name="alt menu"><circle class="cls-1" cx="1.43" cy="6.58" r="1.43"/><circle class="cls-1" cx="17.7" cy="27.35" r="1.43"/><circle class="cls-1" cx="17.7" cy="6.58" r="1.43"/><circle class="cls-1" cx="1.43" cy="22.2" r="1.43"/><circle class="cls-1" cx="17.7" cy="22.2" r="1.43"/><circle class="cls-1" cx="17.7" cy="1.43" r="1.43"/><circle class="cls-1" cx="1.43" cy="16.96" r="1.43"/><circle class="cls-1" cx="1.43" cy="11.92" r="1.43"/><circle class="cls-1" cx="6.88" cy="27.35" r="1.43"/><circle class="cls-1" cx="6.88" cy="6.58" r="1.43"/><circle class="cls-1" cx="23.15" cy="6.58" r="1.43"/><circle class="cls-1" cx="6.88" cy="22.2" r="1.43"/><circle class="cls-1" cx="6.88" cy="1.43" r="1.43"/><circle class="cls-1" cx="23.15" cy="22.2" r="1.43"/><circle class="cls-1" cx="6.88" cy="16.96" r="1.43"/><circle class="cls-1" cx="6.88" cy="11.92" r="1.43"/><circle class="cls-1" cx="12.33" cy="27.35" r="1.43"/><circle class="cls-1" cx="12.33" cy="6.58" r="1.43"/><circle class="cls-1" cx="12.33" cy="22.2" r="1.43"/><circle class="cls-1" cx="12.33" cy="1.43" r="1.43"/></g></g></svg>