<svg xmlns="http://www.w3.org/2000/svg" viewBox="0 0 57.36 57.86"><defs><style>.cls-1{fill:#272f49;}.cls-2{fill:#fff;}</style></defs><title>Asset 43</title><g id="Layer_2" data-name="Layer 2"><g id="alt_menu" data-name="alt menu"><path class="cls-1" d="M.06,27.16c-.5-10.5,2.37-16,8.46-19.54C17.06,2.67,26.27-.29,36.26,0c6.09.19,10.53,3.42,13.67,8.5a53.1,53.1,0,0,1,6.86,19.15,45.54,45.54,0,0,1,.44,10.72,13.32,13.32,0,0,1-5.65,10A49.16,49.16,0,0,1,21,57.85C15.32,57.74,11,54.78,8,50A54.9,54.9,0,0,1,.06,27.16Z"/><circle class="cls-2" cx="19.38" cy="22.02" r="1.26"/><circle class="cls-2" cx="33.7" cy="40.3" r="1.26"/><circle class="cls-2" cx="33.7" cy="22.02" r="1.26"/><circle class="cls-2" cx="19.38" cy="35.78" r="1.26"/><circle class="cls-2" cx="33.7" cy="35.78" r="1.26"/><circle class="cls-2" cx="33.7" cy="17.5" r="1.26"/><circle class="cls-2" cx="19.38" cy="31.17" r="1.26"/><circle class="cls-2" cx="19.38" cy="26.72" r="1.26"/><circle class="cls-2" cx="24.17" cy="40.3" r="1.26"/><circle class="cls-2" cx="24.17" cy="22.02" r="1.26"/><circle class="cls-2" cx="38.49" cy="22.02" r="1.26"/><circle class="cls-2" cx="24.17" cy="35.78" r="1.26"/><circle class="cls-2" cx="24.17" cy="17.5" r="1.26"/><circle class="cls-2" cx="38.49" cy="35.78" r="1.26"/><circle class="cls-2" cx="24.17" cy="31.17" r="1.26"/><circle class="cls-2" cx="24.17" cy="26.72" r="1.26"/><circle class="cls-2" cx="28.97" cy="40.3" r="1.26"/><circle class="cls-2" cx="28.97" cy="22.02" r="1.26"/><circle class="cls-2" cx="28.97" cy="35.78" r="1.26"/><circle class="cls-2" cx="28.97" cy="17.5" r="1.26"/></g></g></svg>