<svg xmlns="http://www.w3.org/2000/svg" viewBox="0 0 16.89 19.78"><title>Asset 98</title><g id="Layer_2" data-name="Layer 2"><g id="alt_menu" data-name="alt menu"><circle cx="0.99" cy="4.52" r="0.99"/><circle cx="12.17" cy="18.79" r="0.99"/><circle cx="12.17" cy="4.52" r="0.99"/><circle cx="0.99" cy="15.26" r="0.99"/><circle cx="12.17" cy="15.26" r="0.99"/><circle cx="12.17" cy="0.99" r="0.99"/><circle cx="0.99" cy="11.66" r="0.99"/><circle cx="0.99" cy="8.19" r="0.99"/><circle cx="4.73" cy="18.79" r="0.99"/><circle cx="4.73" cy="4.52" r="0.99"/><circle cx="15.91" cy="4.52" r="0.99"/><circle cx="4.73" cy="15.26" r="0.99"/><circle cx="4.73" cy="0.99" r="0.99"/><circle cx="15.91" cy="15.26" r="0.99"/><circle cx="4.73" cy="11.66" r="0.99"/><circle cx="4.73" cy="8.19" r="0.99"/><circle cx="8.48" cy="18.79" r="0.99"/><circle cx="8.48" cy="4.52" r="0.99"/><circle cx="8.48" cy="15.26" r="0.99"/><circle cx="8.48" cy="0.99" r="0.99"/></g></g></svg>