<?xml version="1.0" encoding="UTF-8" standalone="no"?>
<!DOCTYPE svg PUBLIC "-//W3C//DTD SVG 1.1//EN" "http://www.w3.org/Graphics/SVG/1.1/DTD/svg11.dtd">
<svg width="100%" height="100%" viewBox="0 0 25 25" version="1.1" xmlns="http://www.w3.org/2000/svg" xmlns:xlink="http://www.w3.org/1999/xlink" xml:space="preserve" style="fill-rule:evenodd;clip-rule:evenodd;stroke-linejoin:round;stroke-miterlimit:1.41421;">
    <g transform="matrix(1,0,0,1,-0.423256,-0.423256)">
        <g transform="matrix(1,0,0,1,0.00566809,0.00566809)">
            <g transform="matrix(0.737511,-1.50035e-16,8.42361e-17,1.2462,3.27176,-3.10779)">
                <path d="M28.88,12.505C28.88,12.094 28.316,11.76 27.621,11.76L-2.611,11.76C-3.306,11.76 -3.87,12.094 -3.87,12.505C-3.87,12.916 -3.306,13.25 -2.611,13.25L27.621,13.25C28.316,13.25 28.88,12.916 28.88,12.505Z" style="fill:white;"/>
            </g>
        </g>
        <g transform="matrix(1,0,0,1,0.00566809,0.00566809)">
            <g transform="matrix(4.21181e-17,0.737511,-1.24428,2.66306e-16,28.037,3.27176)">
                <path d="M28.88,12.505C28.88,12.094 28.317,11.76 27.623,11.76L-2.613,11.76C-3.307,11.76 -3.87,12.094 -3.87,12.505C-3.87,12.916 -3.307,13.25 -2.613,13.25L27.623,13.25C28.317,13.25 28.88,12.916 28.88,12.505Z" style="fill:white;"/>
            </g>
        </g>
    </g>
</svg>
