<svg xmlns="http://www.w3.org/2000/svg" viewBox="0 0 12 12.5"><defs><style>.cls-1{fill:#424242;stroke:#424242;stroke-miterlimit:10;}</style></defs><title>Asset 86</title><g id="Layer_2" data-name="Layer 2"><g id="frontpage"><path class="cls-1" d="M1.08,5.83h9.84c.32,0,.58.18.58.4h0c0,.22-.26.4-.58.4H1.08c-.32,0-.58-.18-.58-.4h0C.5,6,.76,5.83,1.08,5.83Z"/><path class="cls-1" d="M5.6,11.39V1.11C5.6.77,5.77.5,6,.5H6c.21,0,.38.27.38.61V11.39c0,.33-.17.61-.38.61H6C5.77,12,5.6,11.73,5.6,11.39Z"/></g></g></svg>