<svg xmlns="http://www.w3.org/2000/svg" viewBox="0 0 21.25 21.25"><defs><style>.cls-1{fill:#424242;stroke-width:0.5px;}.cls-1,.cls-2{stroke:#424242;stroke-miterlimit:10;}.cls-2{fill:none;stroke-width:1.25px;}</style></defs><title>Asset 67</title><g id="Layer_2" data-name="Layer 2"><g id="icons"><path class="cls-1" d="M5.7,10.23h9.84c.32,0,.58.18.58.4h0c0,.22-.26.4-.58.4H5.7c-.32,0-.58-.18-.58-.4h0C5.13,10.41,5.38,10.23,5.7,10.23Z"/><path class="cls-1" d="M10.23,15.8V5.51c0-.33.17-.61.38-.61h0c.21,0,.38.27.38.61V15.8c0,.33-.17.61-.38.61h0C10.4,16.4,10.23,16.13,10.23,15.8Z"/><circle class="cls-2" cx="10.63" cy="10.63" r="10"/></g></g></svg>