<svg xmlns="http://www.w3.org/2000/svg" viewBox="0 0 9.06 11.82"><defs><style>.cls-1{fill:#424242;stroke:#424242;stroke-miterlimit:10;stroke-width:0.5px;}</style></defs><title>Asset 71</title><g id="Layer_2" data-name="Layer 2"><g id="icons"><path class="cls-1" d="M.88,3H.71a.46.46,0,0,1-.46-.45q0-.48,0-1a.46.46,0,0,1,.44-.44H3.14c0-.15,0-.29,0-.43a.77.77,0,0,1,0-.18.46.46,0,0,1,.4-.33H5.4a.48.48,0,0,1,.51.51c0,.14,0,.28,0,.43h2.4a.47.47,0,0,1,.48.37.85.85,0,0,1,0,.17q0,.42,0,.83A.46.46,0,0,1,8.34,3H8.18v.08q0,1,0,1.94c0,.58,0,1.16,0,1.74q0,1.34,0,2.69c0,.21,0,.42,0,.63a1.57,1.57,0,0,1-1.58,1.45H3.52c-.39,0-.78,0-1.17,0a1.49,1.49,0,0,1-1.16-.63,1.55,1.55,0,0,1-.31-1q0-1.55,0-3.09,0-.79,0-1.58,0-1.08,0-2.16S.88,3.08.88,3Zm.31,0V9.16c0,.27,0,.55,0,.82a1.27,1.27,0,0,0,1.29,1.28H6.57A1.27,1.27,0,0,0,7.87,10c0-.28,0-.57,0-.85q0-1.06,0-2.13V3ZM4.53,1.5H.76c-.14,0-.19.06-.19.19s0,.56,0,.85.06.19.19.19H8.34a.15.15,0,0,0,.16-.16q0-.45,0-.9a.16.16,0,0,0-.16-.17H4.53ZM5.6,1.19c0-.15,0-.28,0-.42S5.54.56,5.4.56H3.64a.17.17,0,0,0-.19.19s0,.08,0,.12,0,.21,0,.33Z"/><path class="cls-1" d="M4.37,7.15q0-1.49,0-3A.17.17,0,0,1,4.44,4a.16.16,0,0,1,.24.12s0,0,0,.05q0,.93,0,1.86,0,2.05,0,4.11a.16.16,0,0,1-.06.14.15.15,0,0,1-.15,0,.15.15,0,0,1-.1-.13s0,0,0-.07Q4.37,8.63,4.37,7.15Z"/><path class="cls-1" d="M6.11,7.15q0-1.49,0-3a.3.3,0,0,1,0-.11A.14.14,0,0,1,6.29,4a.13.13,0,0,1,.13.12.87.87,0,0,1,0,.13q0,2,0,4,0,.94,0,1.88a.16.16,0,0,1-.15.18.15.15,0,0,1-.16-.14.61.61,0,0,1,0-.07Q6.11,8.63,6.11,7.15Z"/><path class="cls-1" d="M2.95,7.15q0,1.49,0,3c0,.11-.06.18-.16.18a.15.15,0,0,1-.16-.17c0-.13,0-.27,0-.4,0-.47,0-.94,0-1.41q0-2.09,0-4.17c0-.12.06-.19.16-.18a.15.15,0,0,1,.15.14s0,0,0,.07Q2.95,5.67,2.95,7.15Z"/></g></g></svg>